<?xml version="1.0" encoding="UTF-8"?>
<svg xmlns="http://www.w3.org/2000/svg" xmlns:xlink="http://www.w3.org/1999/xlink" width="540pt" height="302pt" viewBox="0 0 540 302">
<defs>
<g>
<g id="glyph-0-0">
<path d="M 0.390625 0 L 0.390625 -8.609375 L 7.21875 -8.609375 L 7.21875 0 Z M 6.140625 -1.078125 L 6.140625 -7.53125 L 1.46875 -7.53125 L 1.46875 -1.078125 Z M 6.140625 -1.078125 "/>
</g>
<g id="glyph-0-1">
<path d="M 0.375 0 C 0.414062 -0.71875 0.566406 -1.34375 0.828125 -1.875 C 1.085938 -2.414062 1.59375 -2.90625 2.34375 -3.34375 L 3.46875 -4 C 3.96875 -4.289062 4.320312 -4.539062 4.53125 -4.75 C 4.851562 -5.070312 5.015625 -5.441406 5.015625 -5.859375 C 5.015625 -6.347656 4.863281 -6.734375 4.5625 -7.015625 C 4.269531 -7.304688 3.882812 -7.453125 3.40625 -7.453125 C 2.675781 -7.453125 2.175781 -7.179688 1.90625 -6.640625 C 1.75 -6.335938 1.664062 -5.929688 1.65625 -5.421875 L 0.578125 -5.421875 C 0.585938 -6.148438 0.722656 -6.742188 0.984375 -7.203125 C 1.441406 -8.015625 2.25 -8.421875 3.40625 -8.421875 C 4.363281 -8.421875 5.0625 -8.160156 5.5 -7.640625 C 5.945312 -7.117188 6.171875 -6.539062 6.171875 -5.90625 C 6.171875 -5.238281 5.9375 -4.664062 5.46875 -4.1875 C 5.195312 -3.90625 4.707031 -3.566406 4 -3.171875 L 3.1875 -2.734375 C 2.8125 -2.523438 2.515625 -2.320312 2.296875 -2.125 C 1.898438 -1.789062 1.648438 -1.414062 1.546875 -1 L 6.140625 -1 L 6.140625 0 Z M 0.375 0 "/>
</g>
<g id="glyph-0-2">
<path d="M 3.25 -8.390625 C 4.332031 -8.390625 5.117188 -7.941406 5.609375 -7.046875 C 5.984375 -6.359375 6.171875 -5.410156 6.171875 -4.203125 C 6.171875 -3.066406 6 -2.125 5.65625 -1.375 C 5.164062 -0.300781 4.359375 0.234375 3.234375 0.234375 C 2.234375 0.234375 1.484375 -0.203125 0.984375 -1.078125 C 0.578125 -1.816406 0.375 -2.800781 0.375 -4.03125 C 0.375 -4.976562 0.5 -5.796875 0.75 -6.484375 C 1.207031 -7.753906 2.039062 -8.390625 3.25 -8.390625 Z M 3.234375 -0.734375 C 3.785156 -0.734375 4.222656 -0.972656 4.546875 -1.453125 C 4.867188 -1.941406 5.03125 -2.847656 5.03125 -4.171875 C 5.03125 -5.117188 4.910156 -5.898438 4.671875 -6.515625 C 4.441406 -7.128906 3.988281 -7.4375 3.3125 -7.4375 C 2.6875 -7.4375 2.226562 -7.144531 1.9375 -6.5625 C 1.65625 -5.976562 1.515625 -5.117188 1.515625 -3.984375 C 1.515625 -3.128906 1.609375 -2.441406 1.796875 -1.921875 C 2.078125 -1.128906 2.554688 -0.734375 3.234375 -0.734375 Z M 3.234375 -0.734375 "/>
</g>
<g id="glyph-0-3">
<path d="M 1.484375 -2.140625 C 1.554688 -1.535156 1.835938 -1.117188 2.328125 -0.890625 C 2.578125 -0.773438 2.863281 -0.71875 3.1875 -0.71875 C 3.8125 -0.71875 4.273438 -0.914062 4.578125 -1.3125 C 4.878906 -1.707031 5.03125 -2.148438 5.03125 -2.640625 C 5.03125 -3.222656 4.847656 -3.675781 4.484375 -4 C 4.128906 -4.320312 3.703125 -4.484375 3.203125 -4.484375 C 2.835938 -4.484375 2.523438 -4.410156 2.265625 -4.265625 C 2.003906 -4.128906 1.785156 -3.9375 1.609375 -3.6875 L 0.6875 -3.734375 L 1.328125 -8.25 L 5.6875 -8.25 L 5.6875 -7.234375 L 2.125 -7.234375 L 1.765625 -4.90625 C 1.960938 -5.050781 2.148438 -5.160156 2.328125 -5.234375 C 2.640625 -5.359375 3 -5.421875 3.40625 -5.421875 C 4.175781 -5.421875 4.828125 -5.171875 5.359375 -4.671875 C 5.898438 -4.179688 6.171875 -3.554688 6.171875 -2.796875 C 6.171875 -2.003906 5.921875 -1.300781 5.421875 -0.6875 C 4.929688 -0.0820312 4.148438 0.21875 3.078125 0.21875 C 2.398438 0.21875 1.796875 0.0234375 1.265625 -0.359375 C 0.742188 -0.742188 0.453125 -1.335938 0.390625 -2.140625 Z M 1.484375 -2.140625 "/>
</g>
<g id="glyph-0-4">
<path d="M 1.15625 -5.9375 L 1.15625 -6.75 C 1.914062 -6.820312 2.441406 -6.945312 2.734375 -7.125 C 3.035156 -7.300781 3.265625 -7.710938 3.421875 -8.359375 L 4.25 -8.359375 L 4.25 0 L 3.125 0 L 3.125 -5.9375 Z M 1.15625 -5.9375 "/>
</g>
<g id="glyph-0-5">
<path d="M 7.171875 -8.609375 L 7.171875 -7.578125 L 4.28125 -7.578125 L 4.28125 0 L 3.09375 0 L 3.09375 -7.578125 L 0.1875 -7.578125 L 0.1875 -8.609375 Z M 7.171875 -8.609375 "/>
</g>
<g id="glyph-0-6">
<path d="M 3.265625 -0.6875 C 3.960938 -0.6875 4.441406 -0.945312 4.703125 -1.46875 C 4.960938 -2 5.09375 -2.585938 5.09375 -3.234375 C 5.09375 -3.828125 5 -4.304688 4.8125 -4.671875 C 4.507812 -5.242188 4 -5.53125 3.28125 -5.53125 C 2.632812 -5.53125 2.164062 -5.285156 1.875 -4.796875 C 1.582031 -4.304688 1.4375 -3.710938 1.4375 -3.015625 C 1.4375 -2.347656 1.582031 -1.789062 1.875 -1.34375 C 2.164062 -0.90625 2.628906 -0.6875 3.265625 -0.6875 Z M 3.3125 -6.453125 C 4.113281 -6.453125 4.789062 -6.179688 5.34375 -5.640625 C 5.90625 -5.109375 6.1875 -4.316406 6.1875 -3.265625 C 6.1875 -2.253906 5.941406 -1.414062 5.453125 -0.75 C 4.960938 -0.09375 4.203125 0.234375 3.171875 0.234375 C 2.304688 0.234375 1.617188 -0.0546875 1.109375 -0.640625 C 0.597656 -1.234375 0.34375 -2.019531 0.34375 -3 C 0.34375 -4.050781 0.609375 -4.890625 1.140625 -5.515625 C 1.679688 -6.140625 2.40625 -6.453125 3.3125 -6.453125 Z M 3.265625 -6.421875 Z M 3.265625 -6.421875 "/>
</g>
<g id="glyph-0-7">
<path d="M 0.984375 -8.03125 L 2.046875 -8.03125 L 2.046875 -6.28125 L 3.046875 -6.28125 L 3.046875 -5.421875 L 2.046875 -5.421875 L 2.046875 -1.3125 C 2.046875 -1.09375 2.125 -0.945312 2.28125 -0.875 C 2.351562 -0.832031 2.488281 -0.8125 2.6875 -0.8125 C 2.738281 -0.8125 2.789062 -0.8125 2.84375 -0.8125 C 2.90625 -0.820312 2.972656 -0.828125 3.046875 -0.828125 L 3.046875 0 C 2.929688 0.03125 2.804688 0.0507812 2.671875 0.0625 C 2.546875 0.0820312 2.40625 0.09375 2.25 0.09375 C 1.757812 0.09375 1.425781 -0.03125 1.25 -0.28125 C 1.070312 -0.53125 0.984375 -0.859375 0.984375 -1.265625 L 0.984375 -5.421875 L 0.140625 -5.421875 L 0.140625 -6.28125 L 0.984375 -6.28125 Z M 0.984375 -8.03125 "/>
</g>
<g id="glyph-0-8">
<path d="M 1.578125 -1.671875 C 1.578125 -1.367188 1.6875 -1.128906 1.90625 -0.953125 C 2.132812 -0.773438 2.398438 -0.6875 2.703125 -0.6875 C 3.078125 -0.6875 3.4375 -0.769531 3.78125 -0.9375 C 4.375 -1.226562 4.671875 -1.695312 4.671875 -2.34375 L 4.671875 -3.1875 C 4.535156 -3.113281 4.363281 -3.046875 4.15625 -2.984375 C 3.957031 -2.929688 3.757812 -2.894531 3.5625 -2.875 L 2.9375 -2.796875 C 2.550781 -2.742188 2.257812 -2.660156 2.0625 -2.546875 C 1.738281 -2.367188 1.578125 -2.078125 1.578125 -1.671875 Z M 4.140625 -3.796875 C 4.378906 -3.828125 4.539062 -3.929688 4.625 -4.109375 C 4.664062 -4.203125 4.6875 -4.335938 4.6875 -4.515625 C 4.6875 -4.867188 4.554688 -5.125 4.296875 -5.28125 C 4.046875 -5.445312 3.6875 -5.53125 3.21875 -5.53125 C 2.664062 -5.53125 2.273438 -5.382812 2.046875 -5.09375 C 1.910156 -4.925781 1.820312 -4.679688 1.78125 -4.359375 L 0.796875 -4.359375 C 0.816406 -5.128906 1.066406 -5.664062 1.546875 -5.96875 C 2.035156 -6.269531 2.597656 -6.421875 3.234375 -6.421875 C 3.972656 -6.421875 4.570312 -6.28125 5.03125 -6 C 5.488281 -5.71875 5.71875 -5.28125 5.71875 -4.6875 L 5.71875 -1.078125 C 5.71875 -0.972656 5.738281 -0.882812 5.78125 -0.8125 C 5.832031 -0.75 5.929688 -0.71875 6.078125 -0.71875 C 6.117188 -0.71875 6.164062 -0.71875 6.21875 -0.71875 C 6.28125 -0.726562 6.347656 -0.738281 6.421875 -0.75 L 6.421875 0.03125 C 6.253906 0.0703125 6.125 0.0976562 6.03125 0.109375 C 5.945312 0.128906 5.832031 0.140625 5.6875 0.140625 C 5.320312 0.140625 5.0625 0.0078125 4.90625 -0.25 C 4.8125 -0.382812 4.75 -0.578125 4.71875 -0.828125 C 4.5 -0.546875 4.1875 -0.300781 3.78125 -0.09375 C 3.382812 0.113281 2.945312 0.21875 2.46875 0.21875 C 1.882812 0.21875 1.40625 0.0390625 1.03125 -0.3125 C 0.664062 -0.664062 0.484375 -1.109375 0.484375 -1.640625 C 0.484375 -2.222656 0.664062 -2.675781 1.03125 -3 C 1.394531 -3.320312 1.867188 -3.519531 2.453125 -3.59375 Z M 3.265625 -6.421875 Z M 3.265625 -6.421875 "/>
</g>
<g id="glyph-0-9">
<path d="M 0.796875 -8.609375 L 1.859375 -8.609375 L 1.859375 0 L 0.796875 0 Z M 0.796875 -8.609375 "/>
</g>
<g id="glyph-0-10">
</g>
<g id="glyph-0-11">
<path d="M 3.421875 -0.703125 C 3.910156 -0.703125 4.316406 -0.910156 4.640625 -1.328125 C 4.972656 -1.742188 5.140625 -2.359375 5.140625 -3.171875 C 5.140625 -3.671875 5.066406 -4.101562 4.921875 -4.46875 C 4.648438 -5.15625 4.148438 -5.5 3.421875 -5.5 C 2.691406 -5.5 2.191406 -5.132812 1.921875 -4.40625 C 1.773438 -4.019531 1.703125 -3.523438 1.703125 -2.921875 C 1.703125 -2.429688 1.773438 -2.019531 1.921875 -1.6875 C 2.191406 -1.03125 2.691406 -0.703125 3.421875 -0.703125 Z M 0.6875 -6.25 L 1.71875 -6.25 L 1.71875 -5.421875 C 1.925781 -5.703125 2.15625 -5.921875 2.40625 -6.078125 C 2.757812 -6.304688 3.175781 -6.421875 3.65625 -6.421875 C 4.375 -6.421875 4.976562 -6.148438 5.46875 -5.609375 C 5.96875 -5.066406 6.21875 -4.289062 6.21875 -3.28125 C 6.21875 -1.90625 5.859375 -0.925781 5.140625 -0.34375 C 4.691406 0.0273438 4.164062 0.21875 3.5625 0.21875 C 3.09375 0.21875 2.695312 0.113281 2.375 -0.09375 C 2.1875 -0.21875 1.976562 -0.421875 1.75 -0.703125 L 1.75 2.5 L 0.6875 2.5 Z M 0.6875 -6.25 "/>
</g>
<g id="glyph-0-12">
<path d="M 1.40625 -1.96875 C 1.4375 -1.613281 1.523438 -1.34375 1.671875 -1.15625 C 1.929688 -0.820312 2.390625 -0.65625 3.046875 -0.65625 C 3.441406 -0.65625 3.785156 -0.738281 4.078125 -0.90625 C 4.378906 -1.070312 4.53125 -1.332031 4.53125 -1.6875 C 4.53125 -1.957031 4.410156 -2.164062 4.171875 -2.3125 C 4.015625 -2.394531 3.710938 -2.492188 3.265625 -2.609375 L 2.421875 -2.8125 C 1.890625 -2.945312 1.5 -3.097656 1.25 -3.265625 C 0.789062 -3.546875 0.5625 -3.941406 0.5625 -4.453125 C 0.5625 -5.046875 0.773438 -5.523438 1.203125 -5.890625 C 1.628906 -6.253906 2.207031 -6.4375 2.9375 -6.4375 C 3.875 -6.4375 4.550781 -6.160156 4.96875 -5.609375 C 5.238281 -5.253906 5.367188 -4.875 5.359375 -4.46875 L 4.359375 -4.46875 C 4.335938 -4.707031 4.253906 -4.925781 4.109375 -5.125 C 3.867188 -5.394531 3.445312 -5.53125 2.84375 -5.53125 C 2.445312 -5.53125 2.144531 -5.453125 1.9375 -5.296875 C 1.738281 -5.148438 1.640625 -4.953125 1.640625 -4.703125 C 1.640625 -4.429688 1.773438 -4.210938 2.046875 -4.046875 C 2.203125 -3.953125 2.429688 -3.867188 2.734375 -3.796875 L 3.421875 -3.625 C 4.179688 -3.4375 4.691406 -3.257812 4.953125 -3.09375 C 5.359375 -2.820312 5.5625 -2.394531 5.5625 -1.8125 C 5.5625 -1.257812 5.347656 -0.78125 4.921875 -0.375 C 4.503906 0.0273438 3.863281 0.234375 3 0.234375 C 2.0625 0.234375 1.394531 0.0234375 1 -0.390625 C 0.613281 -0.816406 0.410156 -1.34375 0.390625 -1.96875 Z M 2.953125 -6.421875 Z M 2.953125 -6.421875 "/>
</g>
<g id="glyph-0-13">
<path d="M 3.546875 -8.75 C 2.929688 -7.5625 2.535156 -6.6875 2.359375 -6.125 C 2.078125 -5.257812 1.9375 -4.269531 1.9375 -3.15625 C 1.9375 -2.019531 2.097656 -0.984375 2.421875 -0.046875 C 2.609375 0.535156 2.988281 1.367188 3.5625 2.453125 L 2.859375 2.453125 C 2.285156 1.554688 1.929688 0.984375 1.796875 0.734375 C 1.660156 0.492188 1.515625 0.160156 1.359375 -0.265625 C 1.140625 -0.835938 0.984375 -1.453125 0.890625 -2.109375 C 0.847656 -2.453125 0.828125 -2.773438 0.828125 -3.078125 C 0.828125 -4.234375 1.007812 -5.265625 1.375 -6.171875 C 1.601562 -6.742188 2.082031 -7.601562 2.8125 -8.75 Z M 3.546875 -8.75 "/>
</g>
<g id="glyph-0-14">
<path d="M 2.984375 -6.390625 C 3.484375 -6.390625 3.914062 -6.269531 4.28125 -6.03125 C 4.476562 -5.882812 4.679688 -5.679688 4.890625 -5.421875 L 4.890625 -6.21875 L 5.859375 -6.21875 L 5.859375 -0.515625 C 5.859375 0.285156 5.742188 0.914062 5.515625 1.375 C 5.078125 2.226562 4.25 2.65625 3.03125 2.65625 C 2.351562 2.65625 1.785156 2.503906 1.328125 2.203125 C 0.867188 1.898438 0.609375 1.425781 0.546875 0.78125 L 1.625 0.78125 C 1.675781 1.0625 1.773438 1.28125 1.921875 1.4375 C 2.160156 1.664062 2.535156 1.78125 3.046875 1.78125 C 3.859375 1.78125 4.390625 1.492188 4.640625 0.921875 C 4.785156 0.585938 4.851562 -0.0078125 4.84375 -0.875 C 4.632812 -0.550781 4.378906 -0.3125 4.078125 -0.15625 C 3.785156 0 3.394531 0.078125 2.90625 0.078125 C 2.226562 0.078125 1.632812 -0.160156 1.125 -0.640625 C 0.613281 -1.128906 0.359375 -1.929688 0.359375 -3.046875 C 0.359375 -4.097656 0.613281 -4.914062 1.125 -5.5 C 1.644531 -6.09375 2.265625 -6.390625 2.984375 -6.390625 Z M 4.890625 -3.171875 C 4.890625 -3.941406 4.726562 -4.515625 4.40625 -4.890625 C 4.082031 -5.265625 3.675781 -5.453125 3.1875 -5.453125 C 2.4375 -5.453125 1.925781 -5.101562 1.65625 -4.40625 C 1.507812 -4.039062 1.4375 -3.554688 1.4375 -2.953125 C 1.4375 -2.242188 1.578125 -1.703125 1.859375 -1.328125 C 2.148438 -0.960938 2.539062 -0.78125 3.03125 -0.78125 C 3.789062 -0.78125 4.320312 -1.125 4.625 -1.8125 C 4.800781 -2.195312 4.890625 -2.648438 4.890625 -3.171875 Z M 3.109375 -6.421875 Z M 3.109375 -6.421875 "/>
</g>
<g id="glyph-0-15">
<path d="M 3.1875 -6.453125 C 3.894531 -6.453125 4.46875 -6.28125 4.90625 -5.9375 C 5.351562 -5.59375 5.625 -5.003906 5.71875 -4.171875 L 4.6875 -4.171875 C 4.625 -4.554688 4.484375 -4.875 4.265625 -5.125 C 4.046875 -5.382812 3.6875 -5.515625 3.1875 -5.515625 C 2.519531 -5.515625 2.039062 -5.1875 1.75 -4.53125 C 1.5625 -4.101562 1.46875 -3.578125 1.46875 -2.953125 C 1.46875 -2.328125 1.597656 -1.796875 1.859375 -1.359375 C 2.128906 -0.929688 2.550781 -0.71875 3.125 -0.71875 C 3.5625 -0.71875 3.90625 -0.851562 4.15625 -1.125 C 4.414062 -1.394531 4.59375 -1.757812 4.6875 -2.21875 L 5.71875 -2.21875 C 5.601562 -1.382812 5.3125 -0.773438 4.84375 -0.390625 C 4.375 -0.00390625 3.773438 0.1875 3.046875 0.1875 C 2.222656 0.1875 1.566406 -0.113281 1.078125 -0.71875 C 0.585938 -1.320312 0.34375 -2.070312 0.34375 -2.96875 C 0.34375 -4.070312 0.609375 -4.925781 1.140625 -5.53125 C 1.679688 -6.144531 2.363281 -6.453125 3.1875 -6.453125 Z M 3.03125 -6.421875 Z M 3.03125 -6.421875 "/>
</g>
<g id="glyph-0-16">
<path d="M 3.390625 -6.421875 C 3.835938 -6.421875 4.269531 -6.316406 4.6875 -6.109375 C 5.101562 -5.898438 5.421875 -5.628906 5.640625 -5.296875 C 5.847656 -4.972656 5.988281 -4.601562 6.0625 -4.1875 C 6.125 -3.894531 6.15625 -3.429688 6.15625 -2.796875 L 1.546875 -2.796875 C 1.566406 -2.160156 1.71875 -1.648438 2 -1.265625 C 2.28125 -0.878906 2.71875 -0.6875 3.3125 -0.6875 C 3.863281 -0.6875 4.300781 -0.867188 4.625 -1.234375 C 4.8125 -1.441406 4.945312 -1.6875 5.03125 -1.96875 L 6.0625 -1.96875 C 6.039062 -1.738281 5.953125 -1.484375 5.796875 -1.203125 C 5.640625 -0.921875 5.46875 -0.6875 5.28125 -0.5 C 4.957031 -0.1875 4.554688 0.0195312 4.078125 0.125 C 3.828125 0.1875 3.539062 0.21875 3.21875 0.21875 C 2.4375 0.21875 1.773438 -0.0625 1.234375 -0.625 C 0.691406 -1.195312 0.421875 -1.992188 0.421875 -3.015625 C 0.421875 -4.023438 0.691406 -4.84375 1.234375 -5.46875 C 1.785156 -6.101562 2.503906 -6.421875 3.390625 -6.421875 Z M 5.0625 -3.640625 C 5.019531 -4.097656 4.921875 -4.460938 4.765625 -4.734375 C 4.484375 -5.242188 4.003906 -5.5 3.328125 -5.5 C 2.835938 -5.5 2.425781 -5.320312 2.09375 -4.96875 C 1.769531 -4.625 1.597656 -4.179688 1.578125 -3.640625 Z M 3.28125 -6.421875 Z M 3.28125 -6.421875 "/>
</g>
<g id="glyph-0-17">
<path d="M 0.421875 2.453125 C 1.035156 1.242188 1.4375 0.355469 1.625 -0.203125 C 1.894531 -1.035156 2.03125 -2.019531 2.03125 -3.15625 C 2.03125 -4.28125 1.867188 -5.3125 1.546875 -6.25 C 1.359375 -6.832031 0.976562 -7.664062 0.40625 -8.75 L 1.109375 -8.75 C 1.710938 -7.789062 2.078125 -7.195312 2.203125 -6.96875 C 2.328125 -6.75 2.460938 -6.441406 2.609375 -6.046875 C 2.796875 -5.554688 2.929688 -5.070312 3.015625 -4.59375 C 3.097656 -4.113281 3.140625 -3.65625 3.140625 -3.21875 C 3.140625 -2.0625 2.953125 -1.03125 2.578125 -0.125 C 2.347656 0.457031 1.875 1.316406 1.15625 2.453125 Z M 0.421875 2.453125 "/>
</g>
<g id="glyph-1-0">
<path d="M 0 -0.390625 L -8.609375 -0.390625 L -8.609375 -7.21875 L 0 -7.21875 Z M -1.078125 -6.140625 L -7.53125 -6.140625 L -7.53125 -1.46875 L -1.078125 -1.46875 Z M -1.078125 -6.140625 "/>
</g>
<g id="glyph-1-1">
<path d="M -8.390625 -3.25 C -8.390625 -4.332031 -7.941406 -5.117188 -7.046875 -5.609375 C -6.359375 -5.984375 -5.410156 -6.171875 -4.203125 -6.171875 C -3.066406 -6.171875 -2.125 -6 -1.375 -5.65625 C -0.300781 -5.164062 0.234375 -4.359375 0.234375 -3.234375 C 0.234375 -2.234375 -0.203125 -1.484375 -1.078125 -0.984375 C -1.816406 -0.578125 -2.800781 -0.375 -4.03125 -0.375 C -4.976562 -0.375 -5.796875 -0.5 -6.484375 -0.75 C -7.753906 -1.207031 -8.390625 -2.039062 -8.390625 -3.25 Z M -0.734375 -3.234375 C -0.734375 -3.785156 -0.972656 -4.222656 -1.453125 -4.546875 C -1.941406 -4.867188 -2.847656 -5.03125 -4.171875 -5.03125 C -5.117188 -5.03125 -5.898438 -4.910156 -6.515625 -4.671875 C -7.128906 -4.441406 -7.4375 -3.988281 -7.4375 -3.3125 C -7.4375 -2.6875 -7.144531 -2.226562 -6.5625 -1.9375 C -5.976562 -1.65625 -5.117188 -1.515625 -3.984375 -1.515625 C -3.128906 -1.515625 -2.441406 -1.609375 -1.921875 -1.796875 C -1.128906 -2.078125 -0.734375 -2.554688 -0.734375 -3.234375 Z M -0.734375 -3.234375 "/>
</g>
<g id="glyph-1-2">
<path d="M -1.28125 -1.03125 L -1.28125 -2.25 L 0 -2.25 L 0 -1.03125 Z M -1.28125 -1.03125 "/>
</g>
<g id="glyph-1-3">
<path d="M -2.140625 -1.484375 C -1.535156 -1.554688 -1.117188 -1.835938 -0.890625 -2.328125 C -0.773438 -2.578125 -0.71875 -2.863281 -0.71875 -3.1875 C -0.71875 -3.8125 -0.914062 -4.273438 -1.3125 -4.578125 C -1.707031 -4.878906 -2.148438 -5.03125 -2.640625 -5.03125 C -3.222656 -5.03125 -3.675781 -4.847656 -4 -4.484375 C -4.320312 -4.128906 -4.484375 -3.703125 -4.484375 -3.203125 C -4.484375 -2.835938 -4.410156 -2.523438 -4.265625 -2.265625 C -4.128906 -2.003906 -3.9375 -1.785156 -3.6875 -1.609375 L -3.734375 -0.6875 L -8.25 -1.328125 L -8.25 -5.6875 L -7.234375 -5.6875 L -7.234375 -2.125 L -4.90625 -1.765625 C -5.050781 -1.960938 -5.160156 -2.148438 -5.234375 -2.328125 C -5.359375 -2.640625 -5.421875 -3 -5.421875 -3.40625 C -5.421875 -4.175781 -5.171875 -4.828125 -4.671875 -5.359375 C -4.179688 -5.898438 -3.554688 -6.171875 -2.796875 -6.171875 C -2.003906 -6.171875 -1.300781 -5.921875 -0.6875 -5.421875 C -0.0820312 -4.929688 0.21875 -4.148438 0.21875 -3.078125 C 0.21875 -2.398438 0.0234375 -1.796875 -0.359375 -1.265625 C -0.742188 -0.742188 -1.335938 -0.453125 -2.140625 -0.390625 Z M -2.140625 -1.484375 "/>
</g>
<g id="glyph-1-4">
<path d="M -5.9375 -1.15625 L -6.75 -1.15625 C -6.820312 -1.914062 -6.945312 -2.441406 -7.125 -2.734375 C -7.300781 -3.035156 -7.710938 -3.265625 -8.359375 -3.421875 L -8.359375 -4.25 L 0 -4.25 L 0 -3.125 L -5.9375 -3.125 Z M -5.9375 -1.15625 "/>
</g>
<g id="glyph-1-5">
<path d="M 0 -0.375 C -0.71875 -0.414062 -1.34375 -0.566406 -1.875 -0.828125 C -2.414062 -1.085938 -2.90625 -1.59375 -3.34375 -2.34375 L -4 -3.46875 C -4.289062 -3.96875 -4.539062 -4.320312 -4.75 -4.53125 C -5.070312 -4.851562 -5.441406 -5.015625 -5.859375 -5.015625 C -6.347656 -5.015625 -6.734375 -4.863281 -7.015625 -4.5625 C -7.304688 -4.269531 -7.453125 -3.882812 -7.453125 -3.40625 C -7.453125 -2.675781 -7.179688 -2.175781 -6.640625 -1.90625 C -6.335938 -1.75 -5.929688 -1.664062 -5.421875 -1.65625 L -5.421875 -0.578125 C -6.148438 -0.585938 -6.742188 -0.722656 -7.203125 -0.984375 C -8.015625 -1.441406 -8.421875 -2.25 -8.421875 -3.40625 C -8.421875 -4.363281 -8.160156 -5.0625 -7.640625 -5.5 C -7.117188 -5.945312 -6.539062 -6.171875 -5.90625 -6.171875 C -5.238281 -6.171875 -4.664062 -5.9375 -4.1875 -5.46875 C -3.90625 -5.195312 -3.566406 -4.707031 -3.171875 -4 L -2.734375 -3.1875 C -2.523438 -2.8125 -2.320312 -2.515625 -2.125 -2.296875 C -1.789062 -1.898438 -1.414062 -1.648438 -1 -1.546875 L -1 -6.140625 L 0 -6.140625 Z M 0 -0.375 "/>
</g>
<g id="glyph-1-6">
<path d="M -4.671875 -4.921875 C -4.671875 -5.460938 -4.78125 -5.890625 -5 -6.203125 C -5.21875 -6.523438 -5.609375 -6.6875 -6.171875 -6.6875 C -6.785156 -6.6875 -7.207031 -6.46875 -7.4375 -6.03125 C -7.550781 -5.789062 -7.609375 -5.46875 -7.609375 -5.0625 L -7.609375 -2.21875 L -4.671875 -2.21875 Z M -8.609375 -1.0625 L -8.609375 -5.046875 C -8.609375 -5.703125 -8.515625 -6.238281 -8.328125 -6.65625 C -7.953125 -7.46875 -7.269531 -7.875 -6.28125 -7.875 C -5.769531 -7.875 -5.347656 -7.765625 -5.015625 -7.546875 C -4.691406 -7.335938 -4.429688 -7.039062 -4.234375 -6.65625 C -4.097656 -7 -3.914062 -7.253906 -3.6875 -7.421875 C -3.46875 -7.585938 -3.109375 -7.679688 -2.609375 -7.703125 L -1.453125 -7.75 C -1.128906 -7.757812 -0.882812 -7.785156 -0.71875 -7.828125 C -0.445312 -7.898438 -0.269531 -8.023438 -0.1875 -8.203125 L 0 -8.203125 L 0 -6.78125 C -0.0703125 -6.738281 -0.164062 -6.703125 -0.28125 -6.671875 C -0.40625 -6.648438 -0.632812 -6.632812 -0.96875 -6.625 L -2.40625 -6.546875 C -2.96875 -6.523438 -3.34375 -6.316406 -3.53125 -5.921875 C -3.632812 -5.703125 -3.6875 -5.351562 -3.6875 -4.875 L -3.6875 -2.21875 L 0 -2.21875 L 0 -1.0625 Z M -8.609375 -1.0625 "/>
</g>
<g id="glyph-1-7">
<path d="M -6.421875 -3.390625 C -6.421875 -3.835938 -6.316406 -4.269531 -6.109375 -4.6875 C -5.898438 -5.101562 -5.628906 -5.421875 -5.296875 -5.640625 C -4.972656 -5.847656 -4.601562 -5.988281 -4.1875 -6.0625 C -3.894531 -6.125 -3.429688 -6.15625 -2.796875 -6.15625 L -2.796875 -1.546875 C -2.160156 -1.566406 -1.648438 -1.71875 -1.265625 -2 C -0.878906 -2.28125 -0.6875 -2.71875 -0.6875 -3.3125 C -0.6875 -3.863281 -0.867188 -4.300781 -1.234375 -4.625 C -1.441406 -4.8125 -1.6875 -4.945312 -1.96875 -5.03125 L -1.96875 -6.0625 C -1.738281 -6.039062 -1.484375 -5.953125 -1.203125 -5.796875 C -0.921875 -5.640625 -0.6875 -5.46875 -0.5 -5.28125 C -0.1875 -4.957031 0.0195312 -4.554688 0.125 -4.078125 C 0.1875 -3.828125 0.21875 -3.539062 0.21875 -3.21875 C 0.21875 -2.4375 -0.0625 -1.773438 -0.625 -1.234375 C -1.195312 -0.691406 -1.992188 -0.421875 -3.015625 -0.421875 C -4.023438 -0.421875 -4.84375 -0.691406 -5.46875 -1.234375 C -6.101562 -1.785156 -6.421875 -2.503906 -6.421875 -3.390625 Z M -3.640625 -5.0625 C -4.097656 -5.019531 -4.460938 -4.921875 -4.734375 -4.765625 C -5.242188 -4.484375 -5.5 -4.003906 -5.5 -3.328125 C -5.5 -2.835938 -5.320312 -2.425781 -4.96875 -2.09375 C -4.625 -1.769531 -4.179688 -1.597656 -3.640625 -1.578125 Z M -6.421875 -3.28125 Z M -6.421875 -3.28125 "/>
</g>
<g id="glyph-1-8">
<path d="M -1.671875 -1.578125 C -1.367188 -1.578125 -1.128906 -1.6875 -0.953125 -1.90625 C -0.773438 -2.132812 -0.6875 -2.398438 -0.6875 -2.703125 C -0.6875 -3.078125 -0.769531 -3.4375 -0.9375 -3.78125 C -1.226562 -4.375 -1.695312 -4.671875 -2.34375 -4.671875 L -3.1875 -4.671875 C -3.113281 -4.535156 -3.046875 -4.363281 -2.984375 -4.15625 C -2.929688 -3.957031 -2.894531 -3.757812 -2.875 -3.5625 L -2.796875 -2.9375 C -2.742188 -2.550781 -2.660156 -2.257812 -2.546875 -2.0625 C -2.367188 -1.738281 -2.078125 -1.578125 -1.671875 -1.578125 Z M -3.796875 -4.140625 C -3.828125 -4.378906 -3.929688 -4.539062 -4.109375 -4.625 C -4.203125 -4.664062 -4.335938 -4.6875 -4.515625 -4.6875 C -4.867188 -4.6875 -5.125 -4.554688 -5.28125 -4.296875 C -5.445312 -4.046875 -5.53125 -3.6875 -5.53125 -3.21875 C -5.53125 -2.664062 -5.382812 -2.273438 -5.09375 -2.046875 C -4.925781 -1.910156 -4.679688 -1.820312 -4.359375 -1.78125 L -4.359375 -0.796875 C -5.128906 -0.816406 -5.664062 -1.066406 -5.96875 -1.546875 C -6.269531 -2.035156 -6.421875 -2.597656 -6.421875 -3.234375 C -6.421875 -3.972656 -6.28125 -4.570312 -6 -5.03125 C -5.71875 -5.488281 -5.28125 -5.71875 -4.6875 -5.71875 L -1.078125 -5.71875 C -0.972656 -5.71875 -0.882812 -5.738281 -0.8125 -5.78125 C -0.75 -5.832031 -0.71875 -5.929688 -0.71875 -6.078125 C -0.71875 -6.117188 -0.71875 -6.164062 -0.71875 -6.21875 C -0.726562 -6.28125 -0.738281 -6.347656 -0.75 -6.421875 L 0.03125 -6.421875 C 0.0703125 -6.253906 0.0976562 -6.125 0.109375 -6.03125 C 0.128906 -5.945312 0.140625 -5.832031 0.140625 -5.6875 C 0.140625 -5.320312 0.0078125 -5.0625 -0.25 -4.90625 C -0.382812 -4.8125 -0.578125 -4.75 -0.828125 -4.71875 C -0.546875 -4.5 -0.300781 -4.1875 -0.09375 -3.78125 C 0.113281 -3.382812 0.21875 -2.945312 0.21875 -2.46875 C 0.21875 -1.882812 0.0390625 -1.40625 -0.3125 -1.03125 C -0.664062 -0.664062 -1.109375 -0.484375 -1.640625 -0.484375 C -2.222656 -0.484375 -2.675781 -0.664062 -3 -1.03125 C -3.320312 -1.394531 -3.519531 -1.867188 -3.59375 -2.453125 Z M -6.421875 -3.265625 Z M -6.421875 -3.265625 "/>
</g>
<g id="glyph-1-9">
<path d="M -8.609375 -0.796875 L -8.609375 -1.859375 L 0 -1.859375 L 0 -0.796875 Z M -8.609375 -0.796875 "/>
</g>
<g id="glyph-1-10">
<path d="M -6.25 -0.78125 L -6.25 -1.84375 L 0 -1.84375 L 0 -0.78125 Z M -8.609375 -0.78125 L -8.609375 -1.84375 L -7.40625 -1.84375 L -7.40625 -0.78125 Z M -8.609375 -0.78125 "/>
</g>
<g id="glyph-1-11">
<path d="M -1.96875 -1.40625 C -1.613281 -1.4375 -1.34375 -1.523438 -1.15625 -1.671875 C -0.820312 -1.929688 -0.65625 -2.390625 -0.65625 -3.046875 C -0.65625 -3.441406 -0.738281 -3.785156 -0.90625 -4.078125 C -1.070312 -4.378906 -1.332031 -4.53125 -1.6875 -4.53125 C -1.957031 -4.53125 -2.164062 -4.410156 -2.3125 -4.171875 C -2.394531 -4.015625 -2.492188 -3.710938 -2.609375 -3.265625 L -2.8125 -2.421875 C -2.945312 -1.890625 -3.097656 -1.5 -3.265625 -1.25 C -3.546875 -0.789062 -3.941406 -0.5625 -4.453125 -0.5625 C -5.046875 -0.5625 -5.523438 -0.773438 -5.890625 -1.203125 C -6.253906 -1.628906 -6.4375 -2.207031 -6.4375 -2.9375 C -6.4375 -3.875 -6.160156 -4.550781 -5.609375 -4.96875 C -5.253906 -5.238281 -4.875 -5.367188 -4.46875 -5.359375 L -4.46875 -4.359375 C -4.707031 -4.335938 -4.925781 -4.253906 -5.125 -4.109375 C -5.394531 -3.867188 -5.53125 -3.445312 -5.53125 -2.84375 C -5.53125 -2.445312 -5.453125 -2.144531 -5.296875 -1.9375 C -5.148438 -1.738281 -4.953125 -1.640625 -4.703125 -1.640625 C -4.429688 -1.640625 -4.210938 -1.773438 -4.046875 -2.046875 C -3.953125 -2.203125 -3.867188 -2.429688 -3.796875 -2.734375 L -3.625 -3.421875 C -3.4375 -4.179688 -3.257812 -4.691406 -3.09375 -4.953125 C -2.820312 -5.359375 -2.394531 -5.5625 -1.8125 -5.5625 C -1.257812 -5.5625 -0.78125 -5.347656 -0.375 -4.921875 C 0.0273438 -4.503906 0.234375 -3.863281 0.234375 -3 C 0.234375 -2.0625 0.0234375 -1.394531 -0.390625 -1 C -0.816406 -0.613281 -1.34375 -0.410156 -1.96875 -0.390625 Z M -6.421875 -2.953125 Z M -6.421875 -2.953125 "/>
</g>
<g id="glyph-1-12">
<path d="M -3.0625 -1.4375 C -2.394531 -1.4375 -1.832031 -1.578125 -1.375 -1.859375 C -0.925781 -2.148438 -0.703125 -2.609375 -0.703125 -3.234375 C -0.703125 -3.722656 -0.910156 -4.125 -1.328125 -4.4375 C -1.742188 -4.757812 -2.347656 -4.921875 -3.140625 -4.921875 C -3.929688 -4.921875 -4.515625 -4.753906 -4.890625 -4.421875 C -5.273438 -4.097656 -5.46875 -3.703125 -5.46875 -3.234375 C -5.46875 -2.703125 -5.265625 -2.269531 -4.859375 -1.9375 C -4.453125 -1.601562 -3.851562 -1.4375 -3.0625 -1.4375 Z M -6.390625 -3.03125 C -6.390625 -3.507812 -6.285156 -3.910156 -6.078125 -4.234375 C -5.960938 -4.421875 -5.757812 -4.632812 -5.46875 -4.875 L -8.640625 -4.875 L -8.640625 -5.890625 L 0 -5.890625 L 0 -4.9375 L -0.875 -4.9375 C -0.488281 -4.695312 -0.207031 -4.40625 -0.03125 -4.0625 C 0.132812 -3.726562 0.21875 -3.34375 0.21875 -2.90625 C 0.21875 -2.207031 -0.0703125 -1.601562 -0.65625 -1.09375 C -1.25 -0.582031 -2.03125 -0.328125 -3 -0.328125 C -3.914062 -0.328125 -4.707031 -0.5625 -5.375 -1.03125 C -6.050781 -1.5 -6.390625 -2.164062 -6.390625 -3.03125 Z M -6.390625 -3.03125 "/>
</g>
<g id="glyph-1-13">
</g>
<g id="glyph-1-14">
<path d="M -6.390625 -2.984375 C -6.390625 -3.484375 -6.269531 -3.914062 -6.03125 -4.28125 C -5.882812 -4.476562 -5.679688 -4.679688 -5.421875 -4.890625 L -6.21875 -4.890625 L -6.21875 -5.859375 L -0.515625 -5.859375 C 0.285156 -5.859375 0.914062 -5.742188 1.375 -5.515625 C 2.226562 -5.078125 2.65625 -4.25 2.65625 -3.03125 C 2.65625 -2.351562 2.503906 -1.785156 2.203125 -1.328125 C 1.898438 -0.867188 1.425781 -0.609375 0.78125 -0.546875 L 0.78125 -1.625 C 1.0625 -1.675781 1.28125 -1.773438 1.4375 -1.921875 C 1.664062 -2.160156 1.78125 -2.535156 1.78125 -3.046875 C 1.78125 -3.859375 1.492188 -4.390625 0.921875 -4.640625 C 0.585938 -4.785156 -0.0078125 -4.851562 -0.875 -4.84375 C -0.550781 -4.632812 -0.3125 -4.378906 -0.15625 -4.078125 C 0 -3.785156 0.078125 -3.394531 0.078125 -2.90625 C 0.078125 -2.226562 -0.160156 -1.632812 -0.640625 -1.125 C -1.128906 -0.613281 -1.929688 -0.359375 -3.046875 -0.359375 C -4.097656 -0.359375 -4.914062 -0.613281 -5.5 -1.125 C -6.09375 -1.644531 -6.390625 -2.265625 -6.390625 -2.984375 Z M -3.171875 -4.890625 C -3.941406 -4.890625 -4.515625 -4.726562 -4.890625 -4.40625 C -5.265625 -4.082031 -5.453125 -3.675781 -5.453125 -3.1875 C -5.453125 -2.4375 -5.101562 -1.925781 -4.40625 -1.65625 C -4.039062 -1.507812 -3.554688 -1.4375 -2.953125 -1.4375 C -2.242188 -1.4375 -1.703125 -1.578125 -1.328125 -1.859375 C -0.960938 -2.148438 -0.78125 -2.539062 -0.78125 -3.03125 C -0.78125 -3.789062 -1.125 -4.320312 -1.8125 -4.625 C -2.195312 -4.800781 -2.648438 -4.890625 -3.171875 -4.890625 Z M -6.421875 -3.109375 Z M -6.421875 -3.109375 "/>
</g>
<g id="glyph-1-15">
<path d="M -6.28125 -0.78125 L -6.28125 -1.78125 L -5.390625 -1.78125 C -5.753906 -2.070312 -6.015625 -2.382812 -6.171875 -2.71875 C -6.335938 -3.050781 -6.421875 -3.421875 -6.421875 -3.828125 C -6.421875 -4.710938 -6.109375 -5.3125 -5.484375 -5.625 C -5.140625 -5.800781 -4.65625 -5.890625 -4.03125 -5.890625 L 0 -5.890625 L 0 -4.8125 L -3.953125 -4.8125 C -4.335938 -4.8125 -4.644531 -4.753906 -4.875 -4.640625 C -5.269531 -4.453125 -5.46875 -4.113281 -5.46875 -3.625 C -5.46875 -3.375 -5.441406 -3.171875 -5.390625 -3.015625 C -5.304688 -2.722656 -5.132812 -2.46875 -4.875 -2.25 C -4.664062 -2.070312 -4.453125 -1.957031 -4.234375 -1.90625 C -4.015625 -1.851562 -3.695312 -1.828125 -3.28125 -1.828125 L 0 -1.828125 L 0 -0.78125 Z M -6.421875 -3.25 Z M -6.421875 -3.25 "/>
</g>
<g id="glyph-1-16">
<path d="M -8.75 -3.546875 C -7.5625 -2.929688 -6.6875 -2.535156 -6.125 -2.359375 C -5.257812 -2.078125 -4.269531 -1.9375 -3.15625 -1.9375 C -2.019531 -1.9375 -0.984375 -2.097656 -0.046875 -2.421875 C 0.535156 -2.609375 1.367188 -2.988281 2.453125 -3.5625 L 2.453125 -2.859375 C 1.554688 -2.285156 0.984375 -1.929688 0.734375 -1.796875 C 0.492188 -1.660156 0.160156 -1.515625 -0.265625 -1.359375 C -0.835938 -1.140625 -1.453125 -0.984375 -2.109375 -0.890625 C -2.453125 -0.847656 -2.773438 -0.828125 -3.078125 -0.828125 C -4.234375 -0.828125 -5.265625 -1.007812 -6.171875 -1.375 C -6.742188 -1.601562 -7.601562 -2.082031 -8.75 -2.8125 Z M -8.75 -3.546875 "/>
</g>
<g id="glyph-1-17">
<path d="M -8.03125 -0.984375 L -8.03125 -2.046875 L -6.28125 -2.046875 L -6.28125 -3.046875 L -5.421875 -3.046875 L -5.421875 -2.046875 L -1.3125 -2.046875 C -1.09375 -2.046875 -0.945312 -2.125 -0.875 -2.28125 C -0.832031 -2.351562 -0.8125 -2.488281 -0.8125 -2.6875 C -0.8125 -2.738281 -0.8125 -2.789062 -0.8125 -2.84375 C -0.820312 -2.90625 -0.828125 -2.972656 -0.828125 -3.046875 L 0 -3.046875 C 0.03125 -2.929688 0.0507812 -2.804688 0.0625 -2.671875 C 0.0820312 -2.546875 0.09375 -2.40625 0.09375 -2.25 C 0.09375 -1.757812 -0.03125 -1.425781 -0.28125 -1.25 C -0.53125 -1.070312 -0.859375 -0.984375 -1.265625 -0.984375 L -5.421875 -0.984375 L -5.421875 -0.140625 L -6.28125 -0.140625 L -6.28125 -0.984375 Z M -8.03125 -0.984375 "/>
</g>
<g id="glyph-1-18">
<path d="M -6.453125 -3.1875 C -6.453125 -3.894531 -6.28125 -4.46875 -5.9375 -4.90625 C -5.59375 -5.351562 -5.003906 -5.625 -4.171875 -5.71875 L -4.171875 -4.6875 C -4.554688 -4.625 -4.875 -4.484375 -5.125 -4.265625 C -5.382812 -4.046875 -5.515625 -3.6875 -5.515625 -3.1875 C -5.515625 -2.519531 -5.1875 -2.039062 -4.53125 -1.75 C -4.101562 -1.5625 -3.578125 -1.46875 -2.953125 -1.46875 C -2.328125 -1.46875 -1.796875 -1.597656 -1.359375 -1.859375 C -0.929688 -2.128906 -0.71875 -2.550781 -0.71875 -3.125 C -0.71875 -3.5625 -0.851562 -3.90625 -1.125 -4.15625 C -1.394531 -4.414062 -1.757812 -4.59375 -2.21875 -4.6875 L -2.21875 -5.71875 C -1.382812 -5.601562 -0.773438 -5.3125 -0.390625 -4.84375 C -0.00390625 -4.375 0.1875 -3.773438 0.1875 -3.046875 C 0.1875 -2.222656 -0.113281 -1.566406 -0.71875 -1.078125 C -1.320312 -0.585938 -2.070312 -0.34375 -2.96875 -0.34375 C -4.070312 -0.34375 -4.925781 -0.609375 -5.53125 -1.140625 C -6.144531 -1.679688 -6.453125 -2.363281 -6.453125 -3.1875 Z M -6.421875 -3.03125 Z M -6.421875 -3.03125 "/>
</g>
<g id="glyph-1-19">
<path d="M -2.78125 -1.671875 C -2.289062 -1.703125 -1.894531 -1.816406 -1.59375 -2.015625 C -1.019531 -2.410156 -0.734375 -3.09375 -0.734375 -4.0625 C -0.734375 -4.5 -0.796875 -4.898438 -0.921875 -5.265625 C -1.160156 -5.960938 -1.59375 -6.3125 -2.21875 -6.3125 C -2.6875 -6.3125 -3.019531 -6.160156 -3.21875 -5.859375 C -3.414062 -5.566406 -3.585938 -5.101562 -3.734375 -4.46875 L -4 -3.3125 C -4.164062 -2.539062 -4.351562 -2 -4.5625 -1.6875 C -4.925781 -1.144531 -5.460938 -0.875 -6.171875 -0.875 C -6.953125 -0.875 -7.585938 -1.140625 -8.078125 -1.671875 C -8.578125 -2.203125 -8.828125 -2.957031 -8.828125 -3.9375 C -8.828125 -4.84375 -8.609375 -5.609375 -8.171875 -6.234375 C -7.734375 -6.867188 -7.035156 -7.1875 -6.078125 -7.1875 L -6.078125 -6.09375 C -6.546875 -6.03125 -6.898438 -5.90625 -7.140625 -5.71875 C -7.585938 -5.363281 -7.8125 -4.757812 -7.8125 -3.90625 C -7.8125 -3.21875 -7.664062 -2.722656 -7.375 -2.421875 C -7.09375 -2.117188 -6.757812 -1.96875 -6.375 -1.96875 C -5.957031 -1.96875 -5.648438 -2.144531 -5.453125 -2.5 C -5.328125 -2.726562 -5.171875 -3.25 -4.984375 -4.0625 L -4.703125 -5.28125 C -4.566406 -5.851562 -4.382812 -6.300781 -4.15625 -6.625 C -3.757812 -7.164062 -3.175781 -7.4375 -2.40625 -7.4375 C -1.457031 -7.4375 -0.773438 -7.085938 -0.359375 -6.390625 C 0.0429688 -5.703125 0.25 -4.898438 0.25 -3.984375 C 0.25 -2.910156 -0.0195312 -2.070312 -0.5625 -1.46875 C -1.113281 -0.863281 -1.851562 -0.566406 -2.78125 -0.578125 Z M -8.84375 -4.03125 Z M -8.84375 -4.03125 "/>
</g>
<g id="glyph-1-20">
<path d="M -1 -4.21875 C -1 -4.613281 -1.039062 -4.9375 -1.125 -5.1875 C -1.269531 -5.644531 -1.5625 -6.019531 -2 -6.3125 C -2.34375 -6.539062 -2.785156 -6.703125 -3.328125 -6.796875 C -3.660156 -6.859375 -3.960938 -6.890625 -4.234375 -6.890625 C -5.304688 -6.890625 -6.132812 -6.675781 -6.71875 -6.25 C -7.3125 -5.832031 -7.609375 -5.148438 -7.609375 -4.203125 L -7.609375 -2.140625 L -1 -2.140625 Z M -8.609375 -0.96875 L -8.609375 -4.453125 C -8.609375 -5.640625 -8.1875 -6.554688 -7.34375 -7.203125 C -6.59375 -7.785156 -5.625 -8.078125 -4.4375 -8.078125 C -3.519531 -8.078125 -2.691406 -7.90625 -1.953125 -7.5625 C -0.648438 -6.957031 0 -5.914062 0 -4.4375 L 0 -0.96875 Z M -8.609375 -0.96875 "/>
</g>
<g id="glyph-1-21">
<path d="M 2.453125 -0.421875 C 1.242188 -1.035156 0.355469 -1.4375 -0.203125 -1.625 C -1.035156 -1.894531 -2.019531 -2.03125 -3.15625 -2.03125 C -4.28125 -2.03125 -5.3125 -1.867188 -6.25 -1.546875 C -6.832031 -1.359375 -7.664062 -0.976562 -8.75 -0.40625 L -8.75 -1.109375 C -7.789062 -1.710938 -7.195312 -2.078125 -6.96875 -2.203125 C -6.75 -2.328125 -6.441406 -2.460938 -6.046875 -2.609375 C -5.554688 -2.796875 -5.070312 -2.929688 -4.59375 -3.015625 C -4.113281 -3.097656 -3.65625 -3.140625 -3.21875 -3.140625 C -2.0625 -3.140625 -1.03125 -2.953125 -0.125 -2.578125 C 0.457031 -2.347656 1.316406 -1.875 2.453125 -1.15625 Z M 2.453125 -0.421875 "/>
</g>
<g id="glyph-2-0">
<path d="M 0.328125 0 L 0.328125 -7.3125 L 6.140625 -7.3125 L 6.140625 0 Z M 5.21875 -0.921875 L 5.21875 -6.40625 L 1.25 -6.40625 L 1.25 -0.921875 Z M 5.21875 -0.921875 "/>
</g>
<g id="glyph-2-1">
<path d="M 0.78125 -7.3125 L 1.953125 -7.3125 L 5.640625 -1.390625 L 5.640625 -7.3125 L 6.59375 -7.3125 L 6.59375 0 L 5.46875 0 L 1.71875 -5.921875 L 1.71875 0 L 0.78125 0 Z M 3.609375 -7.3125 Z M 3.609375 -7.3125 "/>
</g>
<g id="glyph-2-2">
<path d="M 0.96875 -5.046875 L 0.96875 -5.734375 C 1.625 -5.796875 2.078125 -5.898438 2.328125 -6.046875 C 2.585938 -6.203125 2.78125 -6.554688 2.90625 -7.109375 L 3.609375 -7.109375 L 3.609375 0 L 2.65625 0 L 2.65625 -5.046875 Z M 0.96875 -5.046875 "/>
</g>
<g id="glyph-2-3">
</g>
<g id="glyph-2-4">
<path d="M 5.65625 -4.09375 L 5.65625 -3.265625 L 0.453125 -3.265625 L 0.453125 -4.09375 Z M 5.65625 -1.953125 L 5.65625 -1.109375 L 0.453125 -1.109375 L 0.453125 -1.953125 Z M 5.65625 -1.953125 "/>
</g>
<g id="glyph-2-5">
<path d="M 2.765625 -7.140625 C 3.679688 -7.140625 4.347656 -6.757812 4.765625 -6 C 5.078125 -5.40625 5.234375 -4.597656 5.234375 -3.578125 C 5.234375 -2.609375 5.09375 -1.804688 4.8125 -1.171875 C 4.394531 -0.265625 3.707031 0.1875 2.75 0.1875 C 1.894531 0.1875 1.257812 -0.179688 0.84375 -0.921875 C 0.488281 -1.546875 0.3125 -2.378906 0.3125 -3.421875 C 0.3125 -4.234375 0.414062 -4.929688 0.625 -5.515625 C 1.019531 -6.597656 1.734375 -7.140625 2.765625 -7.140625 Z M 2.75 -0.625 C 3.21875 -0.625 3.585938 -0.828125 3.859375 -1.234375 C 4.140625 -1.648438 4.28125 -2.421875 4.28125 -3.546875 C 4.28125 -4.347656 4.175781 -5.007812 3.96875 -5.53125 C 3.769531 -6.0625 3.382812 -6.328125 2.8125 -6.328125 C 2.28125 -6.328125 1.894531 -6.078125 1.65625 -5.578125 C 1.414062 -5.085938 1.296875 -4.359375 1.296875 -3.390625 C 1.296875 -2.660156 1.375 -2.078125 1.53125 -1.640625 C 1.769531 -0.960938 2.175781 -0.625 2.75 -0.625 Z M 2.75 -0.625 "/>
</g>
<g id="glyph-2-6">
<path d="M 0.3125 0 C 0.351562 -0.613281 0.484375 -1.144531 0.703125 -1.59375 C 0.921875 -2.050781 1.351562 -2.46875 2 -2.84375 L 2.953125 -3.390625 C 3.378906 -3.640625 3.675781 -3.851562 3.84375 -4.03125 C 4.125 -4.3125 4.265625 -4.628906 4.265625 -4.984375 C 4.265625 -5.398438 4.140625 -5.726562 3.890625 -5.96875 C 3.640625 -6.21875 3.304688 -6.34375 2.890625 -6.34375 C 2.273438 -6.34375 1.847656 -6.109375 1.609375 -5.640625 C 1.484375 -5.390625 1.414062 -5.046875 1.40625 -4.609375 L 0.5 -4.609375 C 0.507812 -5.222656 0.625 -5.726562 0.84375 -6.125 C 1.226562 -6.8125 1.910156 -7.15625 2.890625 -7.15625 C 3.710938 -7.15625 4.3125 -6.929688 4.6875 -6.484375 C 5.0625 -6.046875 5.25 -5.554688 5.25 -5.015625 C 5.25 -4.453125 5.046875 -3.96875 4.640625 -3.5625 C 4.410156 -3.320312 3.992188 -3.035156 3.390625 -2.703125 L 2.71875 -2.328125 C 2.394531 -2.140625 2.140625 -1.96875 1.953125 -1.8125 C 1.617188 -1.519531 1.40625 -1.195312 1.3125 -0.84375 L 5.21875 -0.84375 L 5.21875 0 Z M 0.3125 0 "/>
</g>
<g id="glyph-2-7">
<path d="M 3.375 -2.53125 L 3.375 -5.765625 L 1.09375 -2.53125 Z M 3.390625 0 L 3.390625 -1.75 L 0.265625 -1.75 L 0.265625 -2.625 L 3.53125 -7.15625 L 4.28125 -7.15625 L 4.28125 -2.53125 L 5.328125 -2.53125 L 5.328125 -1.75 L 4.28125 -1.75 L 4.28125 0 Z M 3.390625 0 "/>
</g>
<g id="glyph-2-8">
<path d="M 2.78125 -0.578125 C 3.375 -0.578125 3.78125 -0.800781 4 -1.25 C 4.21875 -1.695312 4.328125 -2.195312 4.328125 -2.75 C 4.328125 -3.25 4.25 -3.65625 4.09375 -3.96875 C 3.84375 -4.457031 3.40625 -4.703125 2.78125 -4.703125 C 2.238281 -4.703125 1.84375 -4.492188 1.59375 -4.078125 C 1.34375 -3.660156 1.21875 -3.15625 1.21875 -2.5625 C 1.21875 -2 1.34375 -1.523438 1.59375 -1.140625 C 1.84375 -0.765625 2.238281 -0.578125 2.78125 -0.578125 Z M 2.8125 -5.484375 C 3.5 -5.484375 4.078125 -5.253906 4.546875 -4.796875 C 5.023438 -4.335938 5.265625 -3.664062 5.265625 -2.78125 C 5.265625 -1.914062 5.054688 -1.203125 4.640625 -0.640625 C 4.222656 -0.0859375 3.570312 0.1875 2.6875 0.1875 C 1.957031 0.1875 1.375 -0.0546875 0.9375 -0.546875 C 0.507812 -1.046875 0.296875 -1.710938 0.296875 -2.546875 C 0.296875 -3.441406 0.519531 -4.15625 0.96875 -4.6875 C 1.425781 -5.21875 2.039062 -5.484375 2.8125 -5.484375 Z M 2.78125 -5.46875 Z M 2.78125 -5.46875 "/>
</g>
<g id="glyph-2-9">
<path d="M 0.6875 -5.328125 L 1.53125 -5.328125 L 1.53125 -4.40625 C 1.601562 -4.59375 1.773438 -4.8125 2.046875 -5.0625 C 2.316406 -5.320312 2.628906 -5.453125 2.984375 -5.453125 C 3.003906 -5.453125 3.035156 -5.453125 3.078125 -5.453125 C 3.117188 -5.453125 3.1875 -5.445312 3.28125 -5.4375 L 3.28125 -4.484375 C 3.226562 -4.492188 3.175781 -4.5 3.125 -4.5 C 3.082031 -4.507812 3.035156 -4.515625 2.984375 -4.515625 C 2.535156 -4.515625 2.1875 -4.367188 1.9375 -4.078125 C 1.695312 -3.785156 1.578125 -3.445312 1.578125 -3.0625 L 1.578125 0 L 0.6875 0 Z M 0.6875 -5.328125 "/>
</g>
<g id="glyph-2-10">
<path d="M 1.34375 -1.421875 C 1.34375 -1.160156 1.4375 -0.953125 1.625 -0.796875 C 1.8125 -0.648438 2.035156 -0.578125 2.296875 -0.578125 C 2.617188 -0.578125 2.925781 -0.648438 3.21875 -0.796875 C 3.71875 -1.046875 3.96875 -1.445312 3.96875 -2 L 3.96875 -2.71875 C 3.851562 -2.644531 3.707031 -2.582031 3.53125 -2.53125 C 3.363281 -2.488281 3.195312 -2.457031 3.03125 -2.4375 L 2.484375 -2.375 C 2.160156 -2.332031 1.921875 -2.265625 1.765625 -2.171875 C 1.484375 -2.015625 1.34375 -1.765625 1.34375 -1.421875 Z M 3.515625 -3.234375 C 3.722656 -3.253906 3.863281 -3.34375 3.9375 -3.5 C 3.96875 -3.570312 3.984375 -3.6875 3.984375 -3.84375 C 3.984375 -4.144531 3.875 -4.363281 3.65625 -4.5 C 3.445312 -4.632812 3.140625 -4.703125 2.734375 -4.703125 C 2.265625 -4.703125 1.929688 -4.578125 1.734375 -4.328125 C 1.617188 -4.191406 1.546875 -3.984375 1.515625 -3.703125 L 0.6875 -3.703125 C 0.695312 -4.359375 0.90625 -4.816406 1.3125 -5.078125 C 1.726562 -5.335938 2.207031 -5.46875 2.75 -5.46875 C 3.375 -5.46875 3.882812 -5.347656 4.28125 -5.109375 C 4.664062 -4.867188 4.859375 -4.492188 4.859375 -3.984375 L 4.859375 -0.921875 C 4.859375 -0.828125 4.878906 -0.75 4.921875 -0.6875 C 4.960938 -0.632812 5.039062 -0.609375 5.15625 -0.609375 C 5.195312 -0.609375 5.242188 -0.609375 5.296875 -0.609375 C 5.347656 -0.617188 5.398438 -0.628906 5.453125 -0.640625 L 5.453125 0.03125 C 5.316406 0.0625 5.210938 0.0820312 5.140625 0.09375 C 5.066406 0.101562 4.96875 0.109375 4.84375 0.109375 C 4.53125 0.109375 4.304688 0 4.171875 -0.21875 C 4.097656 -0.332031 4.046875 -0.492188 4.015625 -0.703125 C 3.828125 -0.460938 3.5625 -0.253906 3.21875 -0.078125 C 2.875 0.0859375 2.5 0.171875 2.09375 0.171875 C 1.59375 0.171875 1.1875 0.0234375 0.875 -0.265625 C 0.5625 -0.566406 0.40625 -0.945312 0.40625 -1.40625 C 0.40625 -1.894531 0.554688 -2.273438 0.859375 -2.546875 C 1.171875 -2.816406 1.582031 -2.984375 2.09375 -3.046875 Z M 2.78125 -5.46875 Z M 2.78125 -5.46875 "/>
</g>
<g id="glyph-2-11">
<path d="M 2.71875 -5.484375 C 3.3125 -5.484375 3.796875 -5.335938 4.171875 -5.046875 C 4.554688 -4.753906 4.785156 -4.253906 4.859375 -3.546875 L 3.984375 -3.546875 C 3.929688 -3.867188 3.8125 -4.140625 3.625 -4.359375 C 3.4375 -4.578125 3.132812 -4.6875 2.71875 -4.6875 C 2.144531 -4.6875 1.734375 -4.40625 1.484375 -3.84375 C 1.328125 -3.488281 1.25 -3.046875 1.25 -2.515625 C 1.25 -1.972656 1.359375 -1.519531 1.578125 -1.15625 C 1.804688 -0.789062 2.164062 -0.609375 2.65625 -0.609375 C 3.03125 -0.609375 3.320312 -0.722656 3.53125 -0.953125 C 3.75 -1.179688 3.898438 -1.492188 3.984375 -1.890625 L 4.859375 -1.890625 C 4.765625 -1.179688 4.515625 -0.660156 4.109375 -0.328125 C 3.710938 -0.00390625 3.203125 0.15625 2.578125 0.15625 C 1.890625 0.15625 1.335938 -0.0976562 0.921875 -0.609375 C 0.503906 -1.117188 0.296875 -1.753906 0.296875 -2.515625 C 0.296875 -3.453125 0.519531 -4.179688 0.96875 -4.703125 C 1.425781 -5.222656 2.007812 -5.484375 2.71875 -5.484375 Z M 2.578125 -5.46875 Z M 2.578125 -5.46875 "/>
</g>
<g id="glyph-2-12">
<path d="M 0.6875 -7.3125 L 1.578125 -7.3125 L 1.578125 0 L 0.6875 0 Z M 0.6875 -7.3125 "/>
</g>
<g id="glyph-2-13">
<path d="M 2.875 -5.453125 C 3.257812 -5.453125 3.628906 -5.363281 3.984375 -5.1875 C 4.335938 -5.007812 4.609375 -4.78125 4.796875 -4.5 C 4.972656 -4.226562 5.09375 -3.914062 5.15625 -3.5625 C 5.207031 -3.3125 5.234375 -2.914062 5.234375 -2.375 L 1.3125 -2.375 C 1.332031 -1.832031 1.460938 -1.398438 1.703125 -1.078125 C 1.941406 -0.753906 2.3125 -0.59375 2.8125 -0.59375 C 3.28125 -0.59375 3.65625 -0.742188 3.9375 -1.046875 C 4.09375 -1.222656 4.207031 -1.429688 4.28125 -1.671875 L 5.15625 -1.671875 C 5.132812 -1.472656 5.054688 -1.253906 4.921875 -1.015625 C 4.796875 -0.773438 4.648438 -0.578125 4.484375 -0.421875 C 4.210938 -0.160156 3.875 0.015625 3.46875 0.109375 C 3.257812 0.160156 3.015625 0.1875 2.734375 0.1875 C 2.078125 0.1875 1.515625 -0.0507812 1.046875 -0.53125 C 0.585938 -1.019531 0.359375 -1.695312 0.359375 -2.5625 C 0.359375 -3.414062 0.585938 -4.109375 1.046875 -4.640625 C 1.515625 -5.179688 2.125 -5.453125 2.875 -5.453125 Z M 4.3125 -3.09375 C 4.269531 -3.476562 4.1875 -3.789062 4.0625 -4.03125 C 3.8125 -4.457031 3.398438 -4.671875 2.828125 -4.671875 C 2.410156 -4.671875 2.0625 -4.519531 1.78125 -4.21875 C 1.507812 -3.925781 1.363281 -3.550781 1.34375 -3.09375 Z M 2.796875 -5.46875 Z M 2.796875 -5.46875 "/>
</g>
</g>
</defs>
<rect x="-54" y="-30.2" width="648" height="362.4" fill="rgb(100%, 100%, 100%)" fill-opacity="1"/>
<path fill="none" stroke-width="0.75" stroke-linecap="round" stroke-linejoin="round" stroke="rgb(0%, 0%, 0%)" stroke-opacity="1" stroke-miterlimit="10" d="M 60.480469 241.519531 L 491.226562 241.519531 "/>
<path fill="none" stroke-width="0.75" stroke-linecap="round" stroke-linejoin="round" stroke="rgb(0%, 0%, 0%)" stroke-opacity="1" stroke-miterlimit="10" d="M 142.878906 241.519531 L 142.878906 248.71875 "/>
<path fill="none" stroke-width="0.75" stroke-linecap="round" stroke-linejoin="round" stroke="rgb(0%, 0%, 0%)" stroke-opacity="1" stroke-miterlimit="10" d="M 281.5 241.519531 L 281.5 248.71875 "/>
<path fill="none" stroke-width="0.75" stroke-linecap="round" stroke-linejoin="round" stroke="rgb(0%, 0%, 0%)" stroke-opacity="1" stroke-miterlimit="10" d="M 386.363281 241.519531 L 386.363281 248.71875 "/>
<path fill="none" stroke-width="0.75" stroke-linecap="round" stroke-linejoin="round" stroke="rgb(0%, 0%, 0%)" stroke-opacity="1" stroke-miterlimit="10" d="M 491.226562 241.519531 L 491.226562 248.71875 "/>
<g fill="rgb(0%, 0%, 0%)" fill-opacity="1">
<use xlink:href="#glyph-0-1" x="132.378906" y="266.681641"/>
<use xlink:href="#glyph-0-2" x="139.378906" y="266.681641"/>
<use xlink:href="#glyph-0-2" x="146.378906" y="266.681641"/>
</g>
<g fill="rgb(0%, 0%, 0%)" fill-opacity="1">
<use xlink:href="#glyph-0-3" x="271" y="266.681641"/>
<use xlink:href="#glyph-0-2" x="278" y="266.681641"/>
<use xlink:href="#glyph-0-2" x="285" y="266.681641"/>
</g>
<g fill="rgb(0%, 0%, 0%)" fill-opacity="1">
<use xlink:href="#glyph-0-4" x="372.363281" y="266.681641"/>
<use xlink:href="#glyph-0-2" x="379.363281" y="266.681641"/>
<use xlink:href="#glyph-0-2" x="386.363281" y="266.681641"/>
<use xlink:href="#glyph-0-2" x="393.363281" y="266.681641"/>
</g>
<g fill="rgb(0%, 0%, 0%)" fill-opacity="1">
<use xlink:href="#glyph-0-1" x="477.226562" y="266.681641"/>
<use xlink:href="#glyph-0-2" x="484.226562" y="266.681641"/>
<use xlink:href="#glyph-0-2" x="491.226562" y="266.681641"/>
<use xlink:href="#glyph-0-2" x="498.226562" y="266.681641"/>
</g>
<path fill="none" stroke-width="0.75" stroke-linecap="round" stroke-linejoin="round" stroke="rgb(0%, 0%, 0%)" stroke-opacity="1" stroke-miterlimit="10" d="M 60.480469 233.109375 L 60.480469 16.941406 "/>
<path fill="none" stroke-width="0.75" stroke-linecap="round" stroke-linejoin="round" stroke="rgb(0%, 0%, 0%)" stroke-opacity="1" stroke-miterlimit="10" d="M 60.480469 233.109375 L 53.28125 233.109375 "/>
<path fill="none" stroke-width="0.75" stroke-linecap="round" stroke-linejoin="round" stroke="rgb(0%, 0%, 0%)" stroke-opacity="1" stroke-miterlimit="10" d="M 60.480469 189.875 L 53.28125 189.875 "/>
<path fill="none" stroke-width="0.75" stroke-linecap="round" stroke-linejoin="round" stroke="rgb(0%, 0%, 0%)" stroke-opacity="1" stroke-miterlimit="10" d="M 60.480469 146.640625 L 53.28125 146.640625 "/>
<path fill="none" stroke-width="0.75" stroke-linecap="round" stroke-linejoin="round" stroke="rgb(0%, 0%, 0%)" stroke-opacity="1" stroke-miterlimit="10" d="M 60.480469 103.40625 L 53.28125 103.40625 "/>
<path fill="none" stroke-width="0.75" stroke-linecap="round" stroke-linejoin="round" stroke="rgb(0%, 0%, 0%)" stroke-opacity="1" stroke-miterlimit="10" d="M 60.480469 60.175781 L 53.28125 60.175781 "/>
<path fill="none" stroke-width="0.75" stroke-linecap="round" stroke-linejoin="round" stroke="rgb(0%, 0%, 0%)" stroke-opacity="1" stroke-miterlimit="10" d="M 60.480469 16.941406 L 53.28125 16.941406 "/>
<g fill="rgb(0%, 0%, 0%)" fill-opacity="1">
<use xlink:href="#glyph-1-1" x="42.439453" y="241.609375"/>
<use xlink:href="#glyph-1-2" x="42.439453" y="234.609375"/>
<use xlink:href="#glyph-1-1" x="42.439453" y="231.609375"/>
</g>
<g fill="rgb(0%, 0%, 0%)" fill-opacity="1">
<use xlink:href="#glyph-1-1" x="42.439453" y="198.375"/>
<use xlink:href="#glyph-1-2" x="42.439453" y="191.375"/>
<use xlink:href="#glyph-1-3" x="42.439453" y="188.375"/>
</g>
<g fill="rgb(0%, 0%, 0%)" fill-opacity="1">
<use xlink:href="#glyph-1-4" x="42.439453" y="155.140625"/>
<use xlink:href="#glyph-1-2" x="42.439453" y="148.140625"/>
<use xlink:href="#glyph-1-1" x="42.439453" y="145.140625"/>
</g>
<g fill="rgb(0%, 0%, 0%)" fill-opacity="1">
<use xlink:href="#glyph-1-4" x="42.439453" y="111.90625"/>
<use xlink:href="#glyph-1-2" x="42.439453" y="104.90625"/>
<use xlink:href="#glyph-1-3" x="42.439453" y="101.90625"/>
</g>
<g fill="rgb(0%, 0%, 0%)" fill-opacity="1">
<use xlink:href="#glyph-1-5" x="42.439453" y="68.675781"/>
<use xlink:href="#glyph-1-2" x="42.439453" y="61.675781"/>
<use xlink:href="#glyph-1-1" x="42.439453" y="58.675781"/>
</g>
<g fill="rgb(0%, 0%, 0%)" fill-opacity="1">
<use xlink:href="#glyph-1-5" x="42.439453" y="25.441406"/>
<use xlink:href="#glyph-1-2" x="42.439453" y="18.441406"/>
<use xlink:href="#glyph-1-3" x="42.439453" y="15.441406"/>
</g>
<path fill="none" stroke-width="0.75" stroke-linecap="round" stroke-linejoin="round" stroke="rgb(0%, 0%, 0%)" stroke-opacity="1" stroke-miterlimit="10" d="M 60.480469 241.519531 L 525.601562 241.519531 L 525.601562 14.398438 L 60.480469 14.398438 Z M 60.480469 241.519531 "/>
<g fill="rgb(0%, 0%, 0%)" fill-opacity="1">
<use xlink:href="#glyph-0-5" x="235.539062" y="295.478516"/>
<use xlink:href="#glyph-0-6" x="241.539062" y="295.478516"/>
<use xlink:href="#glyph-0-7" x="248.539062" y="295.478516"/>
<use xlink:href="#glyph-0-8" x="251.539062" y="295.478516"/>
<use xlink:href="#glyph-0-9" x="258.539062" y="295.478516"/>
<use xlink:href="#glyph-0-10" x="261.539062" y="295.478516"/>
<use xlink:href="#glyph-0-11" x="264.539062" y="295.478516"/>
<use xlink:href="#glyph-0-9" x="271.539062" y="295.478516"/>
<use xlink:href="#glyph-0-6" x="274.539062" y="295.478516"/>
<use xlink:href="#glyph-0-7" x="281.539062" y="295.478516"/>
<use xlink:href="#glyph-0-12" x="284.539062" y="295.478516"/>
<use xlink:href="#glyph-0-10" x="290.539062" y="295.478516"/>
<use xlink:href="#glyph-0-13" x="293.539062" y="295.478516"/>
<use xlink:href="#glyph-0-9" x="297.539062" y="295.478516"/>
<use xlink:href="#glyph-0-6" x="300.539062" y="295.478516"/>
<use xlink:href="#glyph-0-14" x="307.539062" y="295.478516"/>
<use xlink:href="#glyph-0-10" x="314.539062" y="295.478516"/>
<use xlink:href="#glyph-0-12" x="317.539062" y="295.478516"/>
<use xlink:href="#glyph-0-15" x="323.539062" y="295.478516"/>
<use xlink:href="#glyph-0-8" x="329.539062" y="295.478516"/>
<use xlink:href="#glyph-0-9" x="336.539062" y="295.478516"/>
<use xlink:href="#glyph-0-16" x="339.539062" y="295.478516"/>
<use xlink:href="#glyph-0-17" x="346.539062" y="295.478516"/>
</g>
<g fill="rgb(0%, 0%, 0%)" fill-opacity="1">
<use xlink:href="#glyph-1-6" x="13.638672" y="201.460938"/>
<use xlink:href="#glyph-1-7" x="13.638672" y="192.460938"/>
<use xlink:href="#glyph-1-8" x="13.638672" y="185.460938"/>
<use xlink:href="#glyph-1-9" x="13.638672" y="178.460938"/>
<use xlink:href="#glyph-1-10" x="13.638672" y="175.460938"/>
<use xlink:href="#glyph-1-11" x="13.638672" y="172.460938"/>
<use xlink:href="#glyph-1-7" x="13.638672" y="166.460938"/>
<use xlink:href="#glyph-1-12" x="13.638672" y="159.460938"/>
<use xlink:href="#glyph-1-13" x="13.638672" y="152.460938"/>
<use xlink:href="#glyph-1-14" x="13.638672" y="149.460938"/>
<use xlink:href="#glyph-1-8" x="13.638672" y="142.460938"/>
<use xlink:href="#glyph-1-10" x="13.638672" y="135.460938"/>
<use xlink:href="#glyph-1-15" x="13.638672" y="132.460938"/>
<use xlink:href="#glyph-1-13" x="13.638672" y="125.460938"/>
<use xlink:href="#glyph-1-16" x="13.638672" y="122.460938"/>
<use xlink:href="#glyph-1-14" x="13.638672" y="118.460938"/>
<use xlink:href="#glyph-1-7" x="13.638672" y="111.460938"/>
<use xlink:href="#glyph-1-15" x="13.638672" y="104.460938"/>
<use xlink:href="#glyph-1-7" x="13.638672" y="97.460938"/>
<use xlink:href="#glyph-1-17" x="13.638672" y="90.460938"/>
<use xlink:href="#glyph-1-10" x="13.638672" y="87.460938"/>
<use xlink:href="#glyph-1-18" x="13.638672" y="84.460938"/>
<use xlink:href="#glyph-1-13" x="13.638672" y="78.460938"/>
<use xlink:href="#glyph-1-19" x="13.638672" y="75.460938"/>
<use xlink:href="#glyph-1-20" x="13.638672" y="67.460938"/>
<use xlink:href="#glyph-1-21" x="13.638672" y="58.460938"/>
</g>
<path fill="none" stroke-width="2.25" stroke-linecap="round" stroke-linejoin="round" stroke="rgb(60%, 60%, 60%)" stroke-opacity="1" stroke-miterlimit="10" d="M 77.707031 25.347656 L 109.121094 25.347656 L 126.9375 25.296875 L 164.023438 25.347656 L 193.78125 25.347656 L 213.984375 22.8125 L 231.800781 25.347656 L 508.375 25.347656 "/>
<path fill="none" stroke-width="0.75" stroke-linecap="round" stroke-linejoin="round" stroke="rgb(85.098039%, 37.254902%, 0.784314%)" stroke-opacity="1" stroke-miterlimit="10" d="M 84.109375 126.4375 L 102.714844 116.875 "/>
<path fill="none" stroke-width="0.75" stroke-linecap="round" stroke-linejoin="round" stroke="rgb(85.098039%, 37.254902%, 0.784314%)" stroke-opacity="1" stroke-miterlimit="10" d="M 114.160156 118.726562 L 121.898438 126.625 "/>
<path fill="none" stroke-width="0.75" stroke-linecap="round" stroke-linejoin="round" stroke="rgb(85.098039%, 37.254902%, 0.784314%)" stroke-opacity="1" stroke-miterlimit="10" d="M 133.761719 129.464844 L 157.199219 121.554688 "/>
<path fill="none" stroke-width="0.75" stroke-linecap="round" stroke-linejoin="round" stroke="rgb(85.098039%, 37.254902%, 0.784314%)" stroke-opacity="1" stroke-miterlimit="10" d="M 170.695312 116.546875 L 175.898438 114.4375 "/>
<path fill="none" stroke-width="0.75" stroke-linecap="round" stroke-linejoin="round" stroke="rgb(85.098039%, 37.254902%, 0.784314%)" stroke-opacity="1" stroke-miterlimit="10" d="M 200.703125 117.273438 L 224.878906 110.363281 "/>
<path fill="none" stroke-width="0.75" stroke-linecap="round" stroke-linejoin="round" stroke="rgb(85.098039%, 37.254902%, 0.784314%)" stroke-opacity="1" stroke-miterlimit="10" d="M 238.648438 110.617188 L 251.839844 114.917969 "/>
<path fill="none" stroke-width="0.75" stroke-linecap="round" stroke-linejoin="round" stroke="rgb(85.098039%, 37.254902%, 0.784314%)" stroke-opacity="1" stroke-miterlimit="10" d="M 281.710938 113.824219 L 292.261719 108.324219 "/>
<path fill-rule="nonzero" fill="rgb(85.098039%, 37.254902%, 0.784314%)" fill-opacity="1" stroke-width="0.75" stroke-linecap="round" stroke-linejoin="round" stroke="rgb(85.098039%, 37.254902%, 0.784314%)" stroke-opacity="1" stroke-miterlimit="10" d="M 80.40625 129.730469 C 80.40625 133.332031 75.007812 133.332031 75.007812 129.730469 C 75.007812 126.128906 80.40625 126.128906 80.40625 129.730469 "/>
<path fill-rule="nonzero" fill="rgb(85.098039%, 37.254902%, 0.784314%)" fill-opacity="1" stroke-width="0.75" stroke-linecap="round" stroke-linejoin="round" stroke="rgb(85.098039%, 37.254902%, 0.784314%)" stroke-opacity="1" stroke-miterlimit="10" d="M 111.820312 113.585938 C 111.820312 117.183594 106.417969 117.183594 106.417969 113.585938 C 106.417969 109.984375 111.820312 109.984375 111.820312 113.585938 "/>
<path fill-rule="nonzero" fill="rgb(85.098039%, 37.254902%, 0.784314%)" fill-opacity="1" stroke-width="0.75" stroke-linecap="round" stroke-linejoin="round" stroke="rgb(85.098039%, 37.254902%, 0.784314%)" stroke-opacity="1" stroke-miterlimit="10" d="M 129.636719 131.769531 C 129.636719 135.367188 124.238281 135.367188 124.238281 131.769531 C 124.238281 128.167969 129.636719 128.167969 129.636719 131.769531 "/>
<path fill-rule="nonzero" fill="rgb(85.098039%, 37.254902%, 0.784314%)" fill-opacity="1" stroke-width="0.75" stroke-linecap="round" stroke-linejoin="round" stroke="rgb(85.098039%, 37.254902%, 0.784314%)" stroke-opacity="1" stroke-miterlimit="10" d="M 166.722656 119.253906 C 166.722656 122.855469 161.324219 122.855469 161.324219 119.253906 C 161.324219 115.652344 166.722656 115.652344 166.722656 119.253906 "/>
<path fill-rule="nonzero" fill="rgb(85.098039%, 37.254902%, 0.784314%)" fill-opacity="1" stroke-width="0.75" stroke-linecap="round" stroke-linejoin="round" stroke="rgb(85.098039%, 37.254902%, 0.784314%)" stroke-opacity="1" stroke-miterlimit="10" d="M 185.269531 111.734375 C 185.269531 115.332031 179.871094 115.332031 179.871094 111.734375 C 179.871094 108.132812 185.269531 108.132812 185.269531 111.734375 "/>
<path fill-rule="nonzero" fill="rgb(85.098039%, 37.254902%, 0.784314%)" fill-opacity="1" stroke-width="0.75" stroke-linecap="round" stroke-linejoin="round" stroke="rgb(85.098039%, 37.254902%, 0.784314%)" stroke-opacity="1" stroke-miterlimit="10" d="M 196.480469 119.253906 C 196.480469 122.855469 191.082031 122.855469 191.082031 119.253906 C 191.082031 115.652344 196.480469 115.652344 196.480469 119.253906 "/>
<path fill-rule="nonzero" fill="rgb(85.098039%, 37.254902%, 0.784314%)" fill-opacity="1" stroke-width="0.75" stroke-linecap="round" stroke-linejoin="round" stroke="rgb(85.098039%, 37.254902%, 0.784314%)" stroke-opacity="1" stroke-miterlimit="10" d="M 234.503906 108.382812 C 234.503906 111.984375 229.101562 111.984375 229.101562 108.382812 C 229.101562 104.78125 234.503906 104.78125 234.503906 108.382812 "/>
<path fill-rule="nonzero" fill="rgb(85.098039%, 37.254902%, 0.784314%)" fill-opacity="1" stroke-width="0.75" stroke-linecap="round" stroke-linejoin="round" stroke="rgb(85.098039%, 37.254902%, 0.784314%)" stroke-opacity="1" stroke-miterlimit="10" d="M 261.382812 117.152344 C 261.382812 120.753906 255.984375 120.753906 255.984375 117.152344 C 255.984375 113.550781 261.382812 113.550781 261.382812 117.152344 "/>
<path fill-rule="nonzero" fill="rgb(85.098039%, 37.254902%, 0.784314%)" fill-opacity="1" stroke-width="0.75" stroke-linecap="round" stroke-linejoin="round" stroke="rgb(85.098039%, 37.254902%, 0.784314%)" stroke-opacity="1" stroke-miterlimit="10" d="M 271.585938 109.191406 C 271.585938 112.792969 266.1875 112.792969 266.1875 109.191406 C 266.1875 105.59375 271.585938 105.59375 271.585938 109.191406 "/>
<path fill-rule="nonzero" fill="rgb(85.098039%, 37.254902%, 0.784314%)" fill-opacity="1" stroke-width="0.75" stroke-linecap="round" stroke-linejoin="round" stroke="rgb(85.098039%, 37.254902%, 0.784314%)" stroke-opacity="1" stroke-miterlimit="10" d="M 278.023438 117.152344 C 278.023438 120.753906 272.625 120.753906 272.625 117.152344 C 272.625 113.550781 278.023438 113.550781 278.023438 117.152344 "/>
<path fill-rule="nonzero" fill="rgb(85.098039%, 37.254902%, 0.784314%)" fill-opacity="1" stroke-width="0.75" stroke-linecap="round" stroke-linejoin="round" stroke="rgb(85.098039%, 37.254902%, 0.784314%)" stroke-opacity="1" stroke-miterlimit="10" d="M 301.347656 104.996094 C 301.347656 108.59375 295.945312 108.59375 295.945312 104.996094 C 295.945312 101.394531 301.347656 101.394531 301.347656 104.996094 "/>
<path fill="none" stroke-width="0.75" stroke-linecap="round" stroke-linejoin="round" stroke="rgb(45.882353%, 43.921569%, 70.196078%)" stroke-opacity="1" stroke-miterlimit="10" d="M 189.675781 82.738281 L 206.878906 85.574219 "/>
<path fill="none" stroke-width="0.75" stroke-linecap="round" stroke-linejoin="round" stroke="rgb(45.882353%, 43.921569%, 70.196078%)" stroke-opacity="1" stroke-miterlimit="10" d="M 220.347656 83.375 L 225.4375 80.679688 "/>
<path fill="none" stroke-width="0.75" stroke-linecap="round" stroke-linejoin="round" stroke="rgb(45.882353%, 43.921569%, 70.196078%)" stroke-opacity="1" stroke-miterlimit="10" d="M 238.988281 77.785156 L 261.703125 79.277344 "/>
<path fill="none" stroke-width="0.75" stroke-linecap="round" stroke-linejoin="round" stroke="rgb(45.882353%, 43.921569%, 70.196078%)" stroke-opacity="1" stroke-miterlimit="10" d="M 276.078125 79.410156 L 280.242188 79.214844 "/>
<path fill="none" stroke-width="0.75" stroke-linecap="round" stroke-linejoin="round" stroke="rgb(45.882353%, 43.921569%, 70.196078%)" stroke-opacity="1" stroke-miterlimit="10" d="M 305.84375 76.074219 L 329.46875 75.628906 "/>
<path fill="none" stroke-width="0.75" stroke-linecap="round" stroke-linejoin="round" stroke="rgb(45.882353%, 43.921569%, 70.196078%)" stroke-opacity="1" stroke-miterlimit="10" d="M 343.796875 76.492188 L 356.417969 78.257812 "/>
<path fill="none" stroke-width="0.75" stroke-linecap="round" stroke-linejoin="round" stroke="rgb(45.882353%, 43.921569%, 70.196078%)" stroke-opacity="1" stroke-miterlimit="10" d="M 387.351562 74.738281 L 396.347656 75.671875 "/>
<path fill-rule="nonzero" fill="rgb(45.882353%, 43.921569%, 70.196078%)" fill-opacity="1" stroke-width="0.75" stroke-linecap="round" stroke-linejoin="round" stroke="rgb(45.882353%, 43.921569%, 70.196078%)" stroke-opacity="1" stroke-miterlimit="10" d="M 185.269531 81.570312 C 185.269531 85.167969 179.871094 85.167969 179.871094 81.570312 C 179.871094 77.96875 185.269531 77.96875 185.269531 81.570312 "/>
<path fill-rule="nonzero" fill="rgb(45.882353%, 43.921569%, 70.196078%)" fill-opacity="1" stroke-width="0.75" stroke-linecap="round" stroke-linejoin="round" stroke="rgb(45.882353%, 43.921569%, 70.196078%)" stroke-opacity="1" stroke-miterlimit="10" d="M 216.683594 86.742188 C 216.683594 90.34375 211.285156 90.34375 211.285156 86.742188 C 211.285156 83.144531 216.683594 83.144531 216.683594 86.742188 "/>
<path fill-rule="nonzero" fill="rgb(45.882353%, 43.921569%, 70.196078%)" fill-opacity="1" stroke-width="0.75" stroke-linecap="round" stroke-linejoin="round" stroke="rgb(45.882353%, 43.921569%, 70.196078%)" stroke-opacity="1" stroke-miterlimit="10" d="M 234.503906 77.3125 C 234.503906 80.914062 229.101562 80.914062 229.101562 77.3125 C 229.101562 73.714844 234.503906 73.714844 234.503906 77.3125 "/>
<path fill-rule="nonzero" fill="rgb(45.882353%, 43.921569%, 70.196078%)" fill-opacity="1" stroke-width="0.75" stroke-linecap="round" stroke-linejoin="round" stroke="rgb(45.882353%, 43.921569%, 70.196078%)" stroke-opacity="1" stroke-miterlimit="10" d="M 271.585938 79.75 C 271.585938 83.347656 266.1875 83.347656 266.1875 79.75 C 266.1875 76.148438 271.585938 76.148438 271.585938 79.75 "/>
<path fill-rule="nonzero" fill="rgb(45.882353%, 43.921569%, 70.196078%)" fill-opacity="1" stroke-width="0.75" stroke-linecap="round" stroke-linejoin="round" stroke="rgb(45.882353%, 43.921569%, 70.196078%)" stroke-opacity="1" stroke-miterlimit="10" d="M 290.132812 78.875 C 290.132812 82.476562 284.734375 82.476562 284.734375 78.875 C 284.734375 75.277344 290.132812 75.277344 290.132812 78.875 "/>
<path fill-rule="nonzero" fill="rgb(45.882353%, 43.921569%, 70.196078%)" fill-opacity="1" stroke-width="0.75" stroke-linecap="round" stroke-linejoin="round" stroke="rgb(45.882353%, 43.921569%, 70.196078%)" stroke-opacity="1" stroke-miterlimit="10" d="M 301.347656 76.210938 C 301.347656 79.808594 295.945312 79.808594 295.945312 76.210938 C 295.945312 72.609375 301.347656 72.609375 301.347656 76.210938 "/>
<path fill-rule="nonzero" fill="rgb(45.882353%, 43.921569%, 70.196078%)" fill-opacity="1" stroke-width="0.75" stroke-linecap="round" stroke-linejoin="round" stroke="rgb(45.882353%, 43.921569%, 70.196078%)" stroke-opacity="1" stroke-miterlimit="10" d="M 339.367188 75.496094 C 339.367188 79.09375 333.964844 79.09375 333.964844 75.496094 C 333.964844 71.894531 339.367188 71.894531 339.367188 75.496094 "/>
<path fill-rule="nonzero" fill="rgb(45.882353%, 43.921569%, 70.196078%)" fill-opacity="1" stroke-width="0.75" stroke-linecap="round" stroke-linejoin="round" stroke="rgb(45.882353%, 43.921569%, 70.196078%)" stroke-opacity="1" stroke-miterlimit="10" d="M 366.246094 79.253906 C 366.246094 82.851562 360.847656 82.851562 360.847656 79.253906 C 360.847656 75.652344 366.246094 75.652344 366.246094 79.253906 "/>
<path fill-rule="nonzero" fill="rgb(45.882353%, 43.921569%, 70.196078%)" fill-opacity="1" stroke-width="0.75" stroke-linecap="round" stroke-linejoin="round" stroke="rgb(45.882353%, 43.921569%, 70.196078%)" stroke-opacity="1" stroke-miterlimit="10" d="M 376.449219 78.40625 C 376.449219 82.007812 371.050781 82.007812 371.050781 78.40625 C 371.050781 74.808594 376.449219 74.808594 376.449219 78.40625 "/>
<path fill-rule="nonzero" fill="rgb(45.882353%, 43.921569%, 70.196078%)" fill-opacity="1" stroke-width="0.75" stroke-linecap="round" stroke-linejoin="round" stroke="rgb(45.882353%, 43.921569%, 70.196078%)" stroke-opacity="1" stroke-miterlimit="10" d="M 382.886719 73.996094 C 382.886719 77.597656 377.488281 77.597656 377.488281 73.996094 C 377.488281 70.398438 382.886719 70.398438 382.886719 73.996094 "/>
<path fill-rule="nonzero" fill="rgb(45.882353%, 43.921569%, 70.196078%)" fill-opacity="1" stroke-width="0.75" stroke-linecap="round" stroke-linejoin="round" stroke="rgb(45.882353%, 43.921569%, 70.196078%)" stroke-opacity="1" stroke-miterlimit="10" d="M 406.210938 76.414062 C 406.210938 80.011719 400.808594 80.011719 400.808594 76.414062 C 400.808594 72.8125 406.210938 72.8125 406.210938 76.414062 "/>
<path fill="none" stroke-width="0.75" stroke-linecap="round" stroke-linejoin="round" stroke="rgb(10.588235%, 61.960784%, 46.666667%)" stroke-opacity="1" stroke-miterlimit="10" d="M 294.628906 47.710938 L 311.652344 47.03125 "/>
<path fill="none" stroke-width="0.75" stroke-linecap="round" stroke-linejoin="round" stroke="rgb(10.588235%, 61.960784%, 46.666667%)" stroke-opacity="1" stroke-miterlimit="10" d="M 325.636719 44.339844 L 329.878906 42.84375 "/>
<path fill="none" stroke-width="0.75" stroke-linecap="round" stroke-linejoin="round" stroke="rgb(10.588235%, 61.960784%, 46.666667%)" stroke-opacity="1" stroke-miterlimit="10" d="M 343.867188 40.46875 L 366.550781 40.558594 "/>
<path fill="none" stroke-width="0.75" stroke-linecap="round" stroke-linejoin="round" stroke="rgb(10.588235%, 61.960784%, 46.666667%)" stroke-opacity="1" stroke-miterlimit="10" d="M 380.949219 40.570312 L 385.097656 40.5625 "/>
<path fill="none" stroke-width="0.75" stroke-linecap="round" stroke-linejoin="round" stroke="rgb(10.588235%, 61.960784%, 46.666667%)" stroke-opacity="1" stroke-miterlimit="10" d="M 410.710938 34.972656 L 434.332031 34.710938 "/>
<path fill="none" stroke-width="0.75" stroke-linecap="round" stroke-linejoin="round" stroke="rgb(10.588235%, 61.960784%, 46.666667%)" stroke-opacity="1" stroke-miterlimit="10" d="M 448.679688 35.476562 L 461.261719 36.964844 "/>
<path fill="none" stroke-width="0.75" stroke-linecap="round" stroke-linejoin="round" stroke="rgb(10.588235%, 61.960784%, 46.666667%)" stroke-opacity="1" stroke-miterlimit="10" d="M 492.253906 33.585938 L 501.171875 33.609375 "/>
<path fill-rule="nonzero" fill="rgb(10.588235%, 61.960784%, 46.666667%)" fill-opacity="1" stroke-width="0.75" stroke-linecap="round" stroke-linejoin="round" stroke="rgb(10.588235%, 61.960784%, 46.666667%)" stroke-opacity="1" stroke-miterlimit="10" d="M 290.132812 48 C 290.132812 51.601562 284.734375 51.601562 284.734375 48 C 284.734375 44.402344 290.132812 44.402344 290.132812 48 "/>
<path fill-rule="nonzero" fill="rgb(10.588235%, 61.960784%, 46.666667%)" fill-opacity="1" stroke-width="0.75" stroke-linecap="round" stroke-linejoin="round" stroke="rgb(10.588235%, 61.960784%, 46.666667%)" stroke-opacity="1" stroke-miterlimit="10" d="M 321.546875 46.742188 C 321.546875 50.339844 316.148438 50.339844 316.148438 46.742188 C 316.148438 43.140625 321.546875 43.140625 321.546875 46.742188 "/>
<path fill-rule="nonzero" fill="rgb(10.588235%, 61.960784%, 46.666667%)" fill-opacity="1" stroke-width="0.75" stroke-linecap="round" stroke-linejoin="round" stroke="rgb(10.588235%, 61.960784%, 46.666667%)" stroke-opacity="1" stroke-miterlimit="10" d="M 339.367188 40.441406 C 339.367188 44.042969 333.964844 44.042969 333.964844 40.441406 C 333.964844 36.84375 339.367188 36.84375 339.367188 40.441406 "/>
<path fill-rule="nonzero" fill="rgb(10.588235%, 61.960784%, 46.666667%)" fill-opacity="1" stroke-width="0.75" stroke-linecap="round" stroke-linejoin="round" stroke="rgb(10.588235%, 61.960784%, 46.666667%)" stroke-opacity="1" stroke-miterlimit="10" d="M 376.449219 40.585938 C 376.449219 44.183594 371.050781 44.183594 371.050781 40.585938 C 371.050781 36.984375 376.449219 36.984375 376.449219 40.585938 "/>
<path fill-rule="nonzero" fill="rgb(10.588235%, 61.960784%, 46.666667%)" fill-opacity="1" stroke-width="0.75" stroke-linecap="round" stroke-linejoin="round" stroke="rgb(10.588235%, 61.960784%, 46.666667%)" stroke-opacity="1" stroke-miterlimit="10" d="M 394.996094 40.550781 C 394.996094 44.152344 389.597656 44.152344 389.597656 40.550781 C 389.597656 36.949219 394.996094 36.949219 394.996094 40.550781 "/>
<path fill-rule="nonzero" fill="rgb(10.588235%, 61.960784%, 46.666667%)" fill-opacity="1" stroke-width="0.75" stroke-linecap="round" stroke-linejoin="round" stroke="rgb(10.588235%, 61.960784%, 46.666667%)" stroke-opacity="1" stroke-miterlimit="10" d="M 406.210938 35.050781 C 406.210938 38.648438 400.808594 38.648438 400.808594 35.050781 C 400.808594 31.449219 406.210938 31.449219 406.210938 35.050781 "/>
<path fill-rule="nonzero" fill="rgb(10.588235%, 61.960784%, 46.666667%)" fill-opacity="1" stroke-width="0.75" stroke-linecap="round" stroke-linejoin="round" stroke="rgb(10.588235%, 61.960784%, 46.666667%)" stroke-opacity="1" stroke-miterlimit="10" d="M 444.230469 34.632812 C 444.230469 38.230469 438.828125 38.230469 438.828125 34.632812 C 438.828125 31.03125 444.230469 31.03125 444.230469 34.632812 "/>
<path fill-rule="nonzero" fill="rgb(10.588235%, 61.960784%, 46.666667%)" fill-opacity="1" stroke-width="0.75" stroke-linecap="round" stroke-linejoin="round" stroke="rgb(10.588235%, 61.960784%, 46.666667%)" stroke-opacity="1" stroke-miterlimit="10" d="M 471.109375 37.808594 C 471.109375 41.40625 465.710938 41.40625 465.710938 37.808594 C 465.710938 34.207031 471.109375 34.207031 471.109375 37.808594 "/>
<path fill-rule="nonzero" fill="rgb(10.588235%, 61.960784%, 46.666667%)" fill-opacity="1" stroke-width="0.75" stroke-linecap="round" stroke-linejoin="round" stroke="rgb(10.588235%, 61.960784%, 46.666667%)" stroke-opacity="1" stroke-miterlimit="10" d="M 481.3125 37.644531 C 481.3125 41.242188 475.914062 41.242188 475.914062 37.644531 C 475.914062 34.042969 481.3125 34.042969 481.3125 37.644531 "/>
<path fill-rule="nonzero" fill="rgb(10.588235%, 61.960784%, 46.666667%)" fill-opacity="1" stroke-width="0.75" stroke-linecap="round" stroke-linejoin="round" stroke="rgb(10.588235%, 61.960784%, 46.666667%)" stroke-opacity="1" stroke-miterlimit="10" d="M 487.753906 33.566406 C 487.753906 37.167969 482.351562 37.167969 482.351562 33.566406 C 482.351562 29.96875 487.753906 29.96875 487.753906 33.566406 "/>
<path fill-rule="nonzero" fill="rgb(10.588235%, 61.960784%, 46.666667%)" fill-opacity="1" stroke-width="0.75" stroke-linecap="round" stroke-linejoin="round" stroke="rgb(10.588235%, 61.960784%, 46.666667%)" stroke-opacity="1" stroke-miterlimit="10" d="M 511.074219 33.628906 C 511.074219 37.230469 505.671875 37.230469 505.671875 33.628906 C 505.671875 30.027344 511.074219 30.027344 511.074219 33.628906 "/>
<path fill="none" stroke-width="0.75" stroke-linecap="round" stroke-linejoin="round" stroke="rgb(85.098039%, 37.254902%, 0.784314%)" stroke-opacity="1" stroke-miterlimit="10" d="M 450.46875 192.558594 L 468.828125 192.558594 "/>
<path fill="none" stroke-width="0.75" stroke-linecap="round" stroke-linejoin="round" stroke="rgb(45.882353%, 43.921569%, 70.196078%)" stroke-opacity="1" stroke-miterlimit="10" d="M 450.46875 204.800781 L 468.828125 204.800781 "/>
<path fill="none" stroke-width="0.75" stroke-linecap="round" stroke-linejoin="round" stroke="rgb(10.588235%, 61.960784%, 46.666667%)" stroke-opacity="1" stroke-miterlimit="10" d="M 450.46875 217.039062 L 468.828125 217.039062 "/>
<path fill="none" stroke-width="2.25" stroke-linecap="round" stroke-linejoin="round" stroke="rgb(60%, 60%, 60%)" stroke-opacity="1" stroke-miterlimit="10" d="M 450.46875 229.28125 L 468.828125 229.28125 "/>
<path fill-rule="nonzero" fill="rgb(85.098039%, 37.254902%, 0.784314%)" fill-opacity="1" stroke-width="0.75" stroke-linecap="round" stroke-linejoin="round" stroke="rgb(85.098039%, 37.254902%, 0.784314%)" stroke-opacity="1" stroke-miterlimit="10" d="M 461.945312 192.558594 C 461.945312 195.621094 457.355469 195.621094 457.355469 192.558594 C 457.355469 189.5 461.945312 189.5 461.945312 192.558594 "/>
<path fill-rule="nonzero" fill="rgb(45.882353%, 43.921569%, 70.196078%)" fill-opacity="1" stroke-width="0.75" stroke-linecap="round" stroke-linejoin="round" stroke="rgb(45.882353%, 43.921569%, 70.196078%)" stroke-opacity="1" stroke-miterlimit="10" d="M 461.945312 204.800781 C 461.945312 207.859375 457.355469 207.859375 457.355469 204.800781 C 457.355469 201.738281 461.945312 201.738281 461.945312 204.800781 "/>
<path fill-rule="nonzero" fill="rgb(10.588235%, 61.960784%, 46.666667%)" fill-opacity="1" stroke-width="0.75" stroke-linecap="round" stroke-linejoin="round" stroke="rgb(10.588235%, 61.960784%, 46.666667%)" stroke-opacity="1" stroke-miterlimit="10" d="M 461.945312 217.039062 C 461.945312 220.101562 457.355469 220.101562 457.355469 217.039062 C 457.355469 213.980469 461.945312 213.980469 461.945312 217.039062 "/>
<g fill="rgb(0%, 0%, 0%)" fill-opacity="1">
<use xlink:href="#glyph-2-1" x="478.011719" y="196.412109"/>
<use xlink:href="#glyph-2-2" x="485.011719" y="196.412109"/>
<use xlink:href="#glyph-2-3" x="491.011719" y="196.412109"/>
<use xlink:href="#glyph-2-4" x="494.011719" y="196.412109"/>
<use xlink:href="#glyph-2-3" x="500.011719" y="196.412109"/>
<use xlink:href="#glyph-2-2" x="503.011719" y="196.412109"/>
<use xlink:href="#glyph-2-5" x="509.011719" y="196.412109"/>
<use xlink:href="#glyph-2-5" x="515.011719" y="196.412109"/>
</g>
<g fill="rgb(0%, 0%, 0%)" fill-opacity="1">
<use xlink:href="#glyph-2-1" x="478.011719" y="208.654297"/>
<use xlink:href="#glyph-2-2" x="485.011719" y="208.654297"/>
<use xlink:href="#glyph-2-3" x="491.011719" y="208.654297"/>
<use xlink:href="#glyph-2-4" x="494.011719" y="208.654297"/>
<use xlink:href="#glyph-2-3" x="500.011719" y="208.654297"/>
<use xlink:href="#glyph-2-6" x="503.011719" y="208.654297"/>
<use xlink:href="#glyph-2-5" x="509.011719" y="208.654297"/>
<use xlink:href="#glyph-2-5" x="515.011719" y="208.654297"/>
</g>
<g fill="rgb(0%, 0%, 0%)" fill-opacity="1">
<use xlink:href="#glyph-2-1" x="478.011719" y="220.892578"/>
<use xlink:href="#glyph-2-2" x="485.011719" y="220.892578"/>
<use xlink:href="#glyph-2-3" x="491.011719" y="220.892578"/>
<use xlink:href="#glyph-2-4" x="494.011719" y="220.892578"/>
<use xlink:href="#glyph-2-3" x="500.011719" y="220.892578"/>
<use xlink:href="#glyph-2-7" x="503.011719" y="220.892578"/>
<use xlink:href="#glyph-2-5" x="509.011719" y="220.892578"/>
<use xlink:href="#glyph-2-5" x="515.011719" y="220.892578"/>
</g>
<g fill="rgb(0%, 0%, 0%)" fill-opacity="1">
<use xlink:href="#glyph-2-8" x="478.011719" y="233.134766"/>
<use xlink:href="#glyph-2-9" x="484.011719" y="233.134766"/>
<use xlink:href="#glyph-2-10" x="487.011719" y="233.134766"/>
<use xlink:href="#glyph-2-11" x="493.011719" y="233.134766"/>
<use xlink:href="#glyph-2-12" x="498.011719" y="233.134766"/>
<use xlink:href="#glyph-2-13" x="500.011719" y="233.134766"/>
</g>
</svg>
